<?xml version="1.0" encoding="iso-8859-1"?>
<!-- Generator: Adobe Illustrator 18.0.0, SVG Export Plug-In . SVG Version: 6.00 Build 0)  -->
<!DOCTYPE svg PUBLIC "-//W3C//DTD SVG 1.1//EN" "http://www.w3.org/Graphics/SVG/1.1/DTD/svg11.dtd">
<svg version="1.1" id="Capa_1" xmlns="http://www.w3.org/2000/svg" xmlns:xlink="http://www.w3.org/1999/xlink" x="0px" y="0px"
	 viewBox="0 0 297 297" style="enable-background:new 0 0 297 297;" xml:space="preserve">
<g>
	<path d="M286.542,253.601c5.775,0,10.458-4.684,10.458-10.459V53.856c0-5.775-4.683-10.457-10.458-10.457H10.458
		C4.683,43.399,0,48.081,0,53.856v189.285c0,5.775,4.683,10.459,10.458,10.459H286.542z M200.266,215.429
		c-5.775,0-10.458,4.684-10.458,10.457v6.799h-82.615v-6.799c0-5.773-4.683-10.457-10.458-10.457
		c-5.775,0-10.458,4.684-10.458,10.457v6.799H59.478l6.384-19.15c2.04-6.125,9.777-11.701,16.231-11.701h132.814
		c6.454,0,14.191,5.576,16.232,11.701l6.384,19.15h-26.799v-6.799C210.724,220.112,206.041,215.429,200.266,215.429z
		 M276.085,232.685h-16.516l-8.589-25.766c-4.858-14.58-20.705-26-36.073-26H82.093c-15.368,0-31.215,11.42-36.074,26l-8.588,25.766
		H20.915V64.315h255.17V232.685z"/>
	<path d="M79.479,167.323c15.281,0,27.714-12.432,27.714-27.713c0-2.346-0.296-4.621-0.847-6.797h84.31
		c-0.552,2.176-0.848,4.451-0.848,6.797c0,15.281,12.433,27.713,27.714,27.713c15.281,0,27.713-12.432,27.713-27.713
		c0-15.281-12.432-27.713-27.713-27.713H79.479c-15.28,0-27.713,12.432-27.713,27.713C51.766,154.892,64.198,167.323,79.479,167.323
		z M86.276,139.61c0,3.748-3.05,6.797-6.798,6.797c-3.748,0-6.797-3.049-6.797-6.797c0-3.748,3.049-6.797,6.797-6.797
		C83.227,132.814,86.276,135.862,86.276,139.61z M217.521,146.407c-3.748,0-6.798-3.049-6.798-6.797c0-3.748,3.05-6.797,6.798-6.797
		c3.748,0,6.797,3.049,6.797,6.797C224.318,143.358,221.27,146.407,217.521,146.407z"/>
</g>
<g>
</g>
<g>
</g>
<g>
</g>
<g>
</g>
<g>
</g>
<g>
</g>
<g>
</g>
<g>
</g>
<g>
</g>
<g>
</g>
<g>
</g>
<g>
</g>
<g>
</g>
<g>
</g>
<g>
</g>
</svg>
