<?xml version="1.0" encoding="iso-8859-1"?>
<!-- Generator: Adobe Illustrator 19.0.0, SVG Export Plug-In . SVG Version: 6.00 Build 0)  -->
<svg version="1.1" id="Capa_1" xmlns="http://www.w3.org/2000/svg" xmlns:xlink="http://www.w3.org/1999/xlink" x="0px" y="0px"
	 viewBox="0 0 496 496" style="enable-background:new 0 0 496 496;" xml:space="preserve">
<g>
	<g>
		<g>
			<path d="M16,456V184c0-4.416,3.584-8,8-8h152v-16H24c-13.232,0-24,10.768-24,24v272c0,13.232,10.768,24,24,24h8v-16h-8
				C19.584,464,16,460.416,16,456z"/>
			<path d="M472,160H256v16h216c4.416,0,8,3.584,8,8v272c0,4.416-3.584,8-8,8h-8v16h8c13.232,0,24-10.768,24-24V184
				C496,170.768,485.232,160,472,160z"/>
			<path d="M430.032,400H65.968l-16.84,58.96c-0.752,2.6-1.128,5.288-1.128,7.984C48,482.968,61.032,496,77.056,496h341.888
				C434.968,496,448,482.968,448,466.944c0-2.696-0.376-5.384-1.12-7.976L430.032,400z M418.944,480H77.056
				C69.856,480,64,474.144,64,466.944c0-1.208,0.168-2.416,0.504-3.584L78.024,416H417.96l13.528,47.368
				c0.344,1.16,0.512,2.368,0.512,3.576C432,474.144,426.144,480,418.944,480z"/>
			<polygon points="464,400 464,192 32,192 32,400 48,400 48,208 448,208 448,400 			"/>
			<path d="M192,304c0-30.872-25.128-56-56-56s-56,25.128-56,56s25.128,56,56,56S192,334.872,192,304z M128,343.192
				c-5.096-1.04-9.832-3.072-14.024-5.856l10.712-10.712l-11.312-11.312l-10.712,10.712c-2.784-4.192-4.816-8.928-5.856-14.024H112
				v-16H96.808c1.04-5.096,3.072-9.832,5.856-14.024l10.712,10.712l11.312-11.312l-10.712-10.712
				c4.192-2.784,8.928-4.816,14.024-5.856V280h16v-15.192c5.096,1.04,9.832,3.072,14.024,5.856l-10.712,10.712l11.312,11.312
				l10.712-10.712c2.784,4.192,4.816,8.928,5.856,14.024H160v16h15.192c-1.04,5.096-3.072,9.832-5.856,14.024l-10.712-10.712
				l-11.312,11.312l10.712,10.712c-4.192,2.784-8.928,4.816-14.024,5.856V328h-16V343.192z"/>
			<path d="M416,304c0-30.872-25.128-56-56-56s-56,25.128-56,56s25.128,56,56,56S416,334.872,416,304z M352,343.192
				c-5.096-1.04-9.832-3.072-14.024-5.856l10.712-10.712l-11.312-11.312l-10.712,10.712c-2.784-4.192-4.816-8.928-5.856-14.024H336
				v-16h-15.192c1.04-5.096,3.072-9.832,5.856-14.024l10.712,10.712l11.312-11.312l-10.712-10.712
				c4.192-2.784,8.928-4.816,14.024-5.856V280h16v-15.192c5.096,1.04,9.832,3.072,14.024,5.856l-10.712,10.712l11.312,11.312
				l10.712-10.712c2.784,4.192,4.816,8.928,5.856,14.024H384v16h15.192c-1.04,5.096-3.072,9.832-5.856,14.024l-10.712-10.712
				l-11.312,11.312l10.712,10.712c-4.192,2.784-8.928,4.816-14.024,5.856V328h-16V343.192z"/>
			<path d="M208,272v64h80v-64H208z M272,320h-48v-32h48V320z"/>
			<path d="M312,144c13.232,0,24-10.768,24-24V56h32V40h-48v57.472c-2.512-0.896-5.184-1.472-8-1.472c-13.232,0-24,10.768-24,24
				S298.768,144,312,144z M312,112c4.416,0,8,3.584,8,8s-3.584,8-8,8c-4.416,0-8-3.584-8-8S307.584,112,312,112z"/>
			<path d="M216,176c13.232,0,24-10.768,24-24V88h32V72h-48v57.472c-2.512-0.896-5.184-1.472-8-1.472c-13.232,0-24,10.768-24,24
				S202.768,176,216,176z M216,144c4.416,0,8,3.584,8,8s-3.584,8-8,8s-8-3.584-8-8S211.584,144,216,144z"/>
			<path d="M408,104c13.232,0,24-10.768,24-24V16h32V0h-48v57.472c-2.512-0.896-5.184-1.472-8-1.472c-13.232,0-24,10.768-24,24
				S394.768,104,408,104z M408,72c4.416,0,8,3.584,8,8s-3.584,8-8,8c-4.416,0-8-3.584-8-8S403.584,72,408,72z"/>
			<rect x="392" y="448" width="16" height="16"/>
			<rect x="360" y="448" width="16" height="16"/>
			<rect x="120" y="448" width="16" height="16"/>
			<rect x="88" y="448" width="16" height="16"/>
		</g>
	</g>
</g>
<g>
</g>
<g>
</g>
<g>
</g>
<g>
</g>
<g>
</g>
<g>
</g>
<g>
</g>
<g>
</g>
<g>
</g>
<g>
</g>
<g>
</g>
<g>
</g>
<g>
</g>
<g>
</g>
<g>
</g>
</svg>
