<svg id="Capa_1" enable-background="new 0 0 511.979 511.979" height="512" viewBox="0 0 511.979 511.979" width="512" xmlns="http://www.w3.org/2000/svg"><g><path d="m78.85 94.774h234.15v34.27h-234.15z"/><path d="m279.1 302.724h33.9v34h-33.9z"/><path d="m393.66 454.374c-.047-1.443-.03-448.894-.03-454.12h-393.63v457.22c0 29.96 24.29 54.25 54.25 54.25h389.38l-22.64-12.81c-16.17-9.15-26.77-25.97-27.33-44.54zm-344.81-389.6h294.15v94.27h-294.15zm294.15 207.95v94h-93.9v-94zm-295-79.83h192v30h-192zm0 79.15h152.55v30h-152.55zm0 64.26h152.55v30h-152.55zm296 94.59h-296v-30h296z"/><path d="m423.511 95.469v342.042c0 24.43 19.804 44.234 44.234 44.234 24.362 0 44.234-19.737 44.234-44.234v-342.042z"/></g></svg>