<svg id="Capa_1" enable-background="new 0 0 512 512" height="512" viewBox="0 0 512 512" width="512" xmlns="http://www.w3.org/2000/svg"><g><path d="m423.634 96.715v-96.473h-423.634v457.22c0 29.915 24.338 54.253 54.253 54.253 407.464 0 398.655.098 398.655-.002 32.569-.05 59.092-26.556 59.092-59.181 0-34.615 0-320.745 0-355.816h-88.366zm-369.381 385c-13.373 0-24.253-10.88-24.253-24.253v-427.22h363.634v422.289c0 10.405 2.68 20.388 7.683 29.184-18.187 0-329.599 0-347.064 0zm427.747-29.184c0 16.092-13.092 29.184-29.184 29.184-16.117 0-29.183-13.045-29.183-29.184 0-5.841 0-309.845 0-325.816h58.367z"/><path d="m359 64.765h-294.15v94.267h294.15zm-30 64.266h-234.15v-34.266h234.15z"/><path d="m64 192.882h192v30h-192z"/><path d="m64 400.882h296v30h-296z"/><path d="m64 336.298h152.55v30h-152.55z"/><path d="m64 272.031h152.55v30h-152.55z"/><path d="m359 366.715v-94h-93.9v94zm-63.9-64h33.9v34h-33.9z"/></g></svg>