<svg id="svg" version="1.1" xmlns="http://www.w3.org/2000/svg" xmlns:xlink="http://www.w3.org/1999/xlink" width="400" height="255.59246954595793" viewBox="0, 0, 400,255.59246954595793"><g id="svgg"><path id="path0" d="M0.000 127.877 L 0.000 255.754 200.000 255.754 L 400.000 255.754 400.000 127.877 L 400.000 0.000 200.000 0.000 L 0.000 0.000 0.000 127.877 M390.409 3.348 C 393.753 4.250,396.313 6.451,397.969 9.847 L 398.593 11.125 398.593 128.670 C 398.593 228.501,398.540 246.326,398.238 246.956 C 398.042 247.364,397.697 248.096,397.471 248.583 C 396.785 250.056,394.152 252.490,392.189 253.464 L 390.409 254.348 362.664 254.348 L 334.919 254.348 334.742 253.453 C 333.928 249.338,333.443 247.068,333.236 246.401 C 333.102 245.969,332.992 245.313,332.992 244.943 C 332.992 244.573,332.890 244.005,332.766 243.682 C 332.554 243.134,332.171 241.336,331.686 238.619 C 331.574 237.986,331.367 236.950,331.226 236.317 C 331.086 235.684,330.784 234.188,330.555 232.992 C 330.326 231.797,330.033 230.329,329.903 229.731 C 329.442 227.605,329.200 226.443,328.772 224.297 C 328.534 223.101,328.242 221.662,328.124 221.100 C 328.006 220.537,327.726 219.156,327.502 218.031 C 327.064 215.831,326.701 214.036,326.366 212.404 C 326.250 211.841,325.921 210.230,325.635 208.824 C 325.348 207.417,325.039 205.921,324.947 205.499 C 324.446 203.189,323.704 199.532,323.288 197.315 C 322.684 194.095,321.052 191.781,319.147 191.441 C 318.674 191.356,264.942 191.320,199.744 191.360 L 81.202 191.432 80.143 192.121 C 78.416 193.245,77.771 194.395,77.233 197.315 C 77.103 198.018,76.815 199.399,76.593 200.384 C 76.371 201.368,76.075 202.749,75.935 203.453 C 75.795 204.156,75.582 205.192,75.461 205.754 C 75.340 206.317,75.047 207.756,74.808 208.951 C 74.570 210.147,74.266 211.643,74.132 212.276 C 73.999 212.909,73.786 213.945,73.660 214.578 C 73.408 215.842,72.724 219.166,72.344 220.972 C 72.211 221.605,72.001 222.698,71.878 223.402 C 71.565 225.186,71.125 227.330,70.855 228.389 C 70.729 228.881,70.501 229.917,70.348 230.691 C 69.861 233.150,68.672 239.026,68.408 240.281 C 68.065 241.908,67.187 246.211,66.999 247.187 C 66.891 247.749,66.607 249.188,66.368 250.384 C 66.130 251.579,65.858 252.960,65.763 253.453 L 65.592 254.348 37.822 254.348 C 14.638 254.348,9.929 254.289,9.310 253.992 C 8.902 253.797,8.181 253.451,7.708 253.225 C 5.620 252.225,3.390 249.490,2.440 246.763 C 2.097 245.778,2.053 232.396,2.050 128.447 L 2.046 11.242 2.778 9.649 C 3.470 8.143,3.828 7.624,5.183 6.160 C 6.055 5.219,8.205 3.923,9.610 3.491 C 11.209 3.001,388.595 2.858,390.409 3.348 M22.251 63.172 L 22.251 103.071 54.646 103.006 L 87.041 102.941 87.830 101.401 C 89.570 98.003,92.702 94.081,95.307 92.037 C 96.089 91.423,96.861 90.798,97.022 90.649 C 98.198 89.554,102.718 87.175,105.115 86.389 C 110.946 84.477,101.948 84.633,201.535 84.722 C 293.304 84.804,291.286 84.783,293.734 85.677 C 294.015 85.780,294.879 86.070,295.652 86.323 C 298.188 87.152,302.877 89.568,303.945 90.597 C 304.130 90.775,304.895 91.439,305.645 92.072 C 309.161 95.037,311.400 97.880,313.454 101.985 C 314.040 103.155,311.878 103.088,346.675 103.011 L 378.389 102.941 378.453 63.107 L 378.518 23.274 200.384 23.274 L 22.251 23.274 22.251 63.172 M71.281 39.077 C 71.733 39.399,72.366 40.032,72.688 40.483 L 73.274 41.304 73.274 54.476 C 73.274 72.456,75.232 70.434,57.718 70.537 C 42.814 70.625,43.065 70.652,41.904 68.822 L 41.176 67.675 41.176 54.541 C 41.176 36.498,39.219 38.406,57.673 38.456 L 70.460 38.491 71.281 39.077 M54.619 44.220 C 54.488 44.432,52.736 49.228,52.133 51.023 C 51.992 51.445,51.776 52.020,51.654 52.302 C 51.532 52.583,51.261 53.331,51.051 53.964 C 50.841 54.597,50.079 56.784,49.357 58.824 C 48.635 60.863,47.882 62.992,47.683 63.555 C 47.094 65.224,47.087 65.217,49.498 65.217 L 51.681 65.217 52.133 64.130 C 52.382 63.533,52.742 62.554,52.932 61.957 L 53.279 60.870 57.194 60.870 L 61.109 60.870 61.772 63.043 L 62.435 65.217 64.679 65.217 C 67.647 65.217,67.578 65.803,65.342 59.591 C 65.013 58.676,64.332 56.749,63.830 55.307 C 63.327 53.865,62.504 51.506,62.002 50.064 C 61.499 48.622,60.798 46.666,60.445 45.716 L 59.802 43.990 57.282 43.990 C 55.896 43.990,54.698 44.093,54.619 44.220 M57.545 49.674 C 57.545 50.012,59.208 55.520,59.587 56.436 C 59.893 57.178,59.543 57.289,56.900 57.289 C 54.228 57.289,54.306 57.529,55.647 53.476 C 56.269 51.597,56.777 49.903,56.777 49.710 C 56.777 49.518,56.950 49.361,57.161 49.361 C 57.372 49.361,57.545 49.502,57.545 49.674 M206.522 92.327 C 206.435 92.468,206.440 92.706,206.533 92.857 C 206.716 93.153,207.221 95.412,207.786 98.465 C 210.287 111.971,209.928 124.294,206.609 138.875 C 206.532 139.213,209.098 139.266,228.325 139.324 L 250.128 139.389 250.128 115.730 L 250.128 92.072 228.404 92.072 C 214.197 92.072,206.625 92.160,206.522 92.327 M150.648 115.921 L 150.656 139.003 151.191 138.363 C 151.844 137.583,154.819 131.467,155.234 130.051 C 155.399 129.488,155.634 128.798,155.756 128.517 C 155.969 128.025,156.436 126.101,156.999 123.402 C 158.510 116.151,157.523 107.257,154.332 99.372 C 153.295 96.811,151.167 92.840,150.831 92.839 C 150.726 92.839,150.643 103.226,150.648 115.921 M110.358 94.676 C 109.233 94.949,108.024 95.241,107.673 95.325 C 106.632 95.575,103.353 97.458,101.792 98.701 C 93.839 105.037,91.347 115.442,95.554 124.751 C 95.889 125.494,96.164 126.163,96.164 126.240 C 96.164 127.228,101.427 132.752,103.472 133.910 C 105.771 135.212,106.613 135.609,108.238 136.154 C 125.430 141.924,141.512 125.100,135.218 107.928 C 134.056 104.758,128.969 98.210,127.669 98.210 C 127.555 98.210,127.239 98.007,126.966 97.760 C 123.756 94.846,115.771 93.363,110.358 94.676 M280.946 94.660 C 279.821 94.934,278.626 95.228,278.292 95.314 C 275.021 96.147,267.263 102.475,267.263 104.309 C 267.263 104.448,267.173 104.599,267.064 104.646 C 266.954 104.693,266.536 105.422,266.135 106.266 C 264.436 109.847,264.115 111.339,264.126 115.607 C 264.137 119.547,264.463 121.219,265.831 124.335 C 266.056 124.849,266.240 125.339,266.240 125.425 C 266.240 125.947,268.959 129.559,270.530 131.124 C 275.109 135.686,283.100 138.304,288.738 137.091 C 290.496 136.712,292.800 136.091,293.478 135.812 C 295.379 135.031,296.215 134.590,297.570 133.650 C 299.968 131.988,300.617 131.346,303.477 127.806 C 306.165 124.478,307.956 115.254,306.696 111.234 C 305.697 108.047,304.988 106.183,304.452 105.334 C 304.114 104.797,303.836 104.250,303.836 104.118 C 303.836 103.987,303.750 103.841,303.645 103.794 C 303.539 103.747,303.112 103.248,302.696 102.685 C 297.756 96.006,288.876 92.729,280.946 94.660 M22.251 113.043 L 22.251 116.624 53.293 116.624 L 84.335 116.624 84.481 113.747 C 84.561 112.164,84.704 110.553,84.798 110.166 L 84.970 109.463 53.610 109.463 L 22.251 109.463 22.251 113.043 M316.216 110.550 C 316.290 111.148,316.417 112.442,316.498 113.427 C 316.579 114.412,316.707 115.534,316.783 115.921 L 316.920 116.624 347.719 116.624 L 378.517 116.624 378.517 113.043 L 378.517 109.463 347.299 109.463 L 316.081 109.463 316.216 110.550 M22.251 126.343 L 22.251 129.923 54.987 129.923 C 72.992 129.923,87.724 129.864,87.724 129.792 C 87.724 129.720,87.618 129.461,87.489 129.216 C 86.725 127.771,86.005 125.783,85.269 123.082 C 85.200 122.828,78.672 122.762,53.716 122.762 L 22.251 122.762 22.251 126.343 M315.457 124.233 C 315.211 125.042,314.912 125.813,314.794 125.946 C 314.675 126.080,314.578 126.403,314.578 126.664 C 314.578 126.926,314.290 127.655,313.939 128.285 C 313.587 128.915,313.299 129.541,313.299 129.677 C 313.299 129.834,325.139 129.923,345.908 129.923 L 378.517 129.923 378.517 126.343 L 378.517 122.762 347.211 122.762 L 315.904 122.762 315.457 124.233 M22.251 141.049 L 22.251 145.013 63.363 145.005 L 104.476 144.998 102.020 143.769 C 98.994 142.253,96.193 140.338,94.299 138.489 L 92.861 137.084 57.556 137.084 L 22.251 137.084 22.251 141.049 M306.768 138.305 C 305.060 139.910,304.326 140.506,303.014 141.356 C 302.411 141.747,301.861 142.127,301.790 142.200 C 301.720 142.273,301.202 142.561,300.639 142.841 C 300.077 143.121,299.559 143.414,299.488 143.491 C 299.418 143.569,298.728 143.936,297.954 144.307 L 296.547 144.982 337.532 144.997 L 378.517 145.013 378.517 141.049 L 378.517 137.084 343.286 137.090 L 308.056 137.095 306.768 138.305 M221.115 158.766 C 221.036 158.844,220.972 160.156,220.972 161.679 L 220.972 164.450 192.441 164.450 L 163.911 164.450 163.989 165.665 L 164.066 166.880 207.795 166.944 C 252.246 167.010,253.696 166.983,249.744 166.158 C 249.322 166.070,247.481 165.592,245.652 165.096 C 243.824 164.600,240.371 163.683,237.980 163.058 C 235.588 162.433,232.999 161.750,232.225 161.541 C 223.585 159.203,221.259 158.622,221.115 158.766 M318.843 195.460 C 319.458 196.143,319.667 196.669,319.938 198.210 C 320.049 198.843,320.375 200.512,320.664 201.918 C 321.184 204.460,321.312 205.075,321.728 207.033 C 321.847 207.596,322.140 209.035,322.378 210.230 C 323.178 214.257,323.270 214.702,323.532 215.857 C 323.768 216.893,324.184 218.995,324.799 222.251 C 324.919 222.884,325.256 224.552,325.548 225.959 C 325.841 227.366,326.205 229.150,326.358 229.923 C 326.511 230.697,326.735 231.733,326.855 232.225 C 326.976 232.717,327.261 234.156,327.490 235.422 C 327.718 236.688,328.009 238.127,328.135 238.619 C 328.261 239.111,328.427 239.859,328.505 240.281 C 328.820 242.007,329.555 245.619,330.159 248.402 C 330.289 248.999,330.561 250.409,330.764 251.535 C 330.968 252.660,331.178 253.753,331.232 253.964 C 331.325 254.328,70.362 254.732,69.406 254.370 C 69.201 254.292,69.259 253.606,69.606 252.002 C 69.874 250.760,70.190 249.226,70.308 248.593 C 70.537 247.360,71.453 242.825,71.728 241.560 C 71.819 241.138,71.998 240.332,72.124 239.770 C 72.250 239.207,72.541 237.769,72.770 236.573 C 72.998 235.377,73.297 233.881,73.433 233.248 C 73.569 232.615,73.778 231.579,73.898 230.946 C 74.170 229.504,74.915 225.780,75.203 224.425 C 75.614 222.489,75.745 221.860,76.268 219.309 C 76.864 216.409,77.039 215.540,77.613 212.660 C 78.199 209.717,78.508 208.198,78.759 207.033 C 79.032 205.762,79.776 202.050,80.066 200.512 C 80.791 196.669,81.085 195.767,81.788 195.234 C 82.145 194.962,103.833 194.900,200.275 194.893 L 318.325 194.885 318.843 195.460 M138.678 227.775 C 137.189 228.948,137.084 229.399,137.084 234.655 C 137.084 242.245,137.411 242.531,145.932 242.406 C 154.039 242.287,154.490 241.877,154.456 234.668 C 154.421 227.286,154.214 227.109,145.597 227.113 L 139.514 227.116 138.678 227.775 M249.925 227.658 C 248.323 228.684,248.082 229.594,248.082 234.613 C 248.082 241.923,248.615 242.455,255.933 242.455 C 260.618 242.455,261.384 242.259,262.636 240.741 L 263.427 239.781 263.427 234.840 C 263.427 229.362,263.327 228.923,261.805 227.763 C 260.582 226.830,251.345 226.748,249.925 227.658 M102.302 231.760 C 101.950 231.907,101.211 232.213,100.660 232.440 C 94.150 235.123,94.170 246.134,100.691 249.242 C 110.304 253.823,119.120 241.650,111.621 234.151 C 109.408 231.938,104.740 230.740,102.302 231.760 M293.223 231.714 C 293.136 231.854,292.839 231.969,292.563 231.969 C 289.923 231.969,286.238 237.081,286.202 240.793 C 286.164 244.718,290.134 249.872,293.195 249.872 C 293.408 249.872,293.875 250.006,294.233 250.169 C 297.063 251.458,303.003 248.003,304.494 244.200 C 306.390 239.362,302.916 231.969,298.747 231.969 C 298.468 231.969,298.169 231.854,298.082 231.714 C 297.995 231.573,296.902 231.458,295.652 231.458 C 294.403 231.458,293.309 231.573,293.223 231.714 " stroke="none" fill="#fbfbfb" fill-rule="evenodd"></path><path id="path1" d="M11.381 3.489 C 6.870 4.412,3.701 7.303,2.590 11.509 C 2.239 12.839,2.299 244.812,2.651 246.164 C 3.399 249.038,5.728 251.791,8.634 253.235 L 10.358 254.092 37.852 254.092 L 65.345 254.092 65.520 252.941 C 65.616 252.308,65.884 250.812,66.117 249.616 C 66.349 248.421,66.595 247.097,66.663 246.675 C 66.731 246.253,66.887 245.678,67.009 245.396 C 67.132 245.115,67.283 244.482,67.346 243.990 C 67.450 243.174,68.004 240.305,68.554 237.724 C 68.675 237.161,68.960 235.723,69.189 234.527 C 69.418 233.331,69.718 231.835,69.855 231.202 C 69.993 230.569,70.163 229.648,70.235 229.156 C 70.306 228.664,70.462 228.031,70.581 227.749 C 70.701 227.468,70.933 226.432,71.098 225.448 C 71.384 223.744,71.519 223.070,72.134 220.269 C 72.280 219.600,72.563 218.191,72.762 217.136 C 72.961 216.081,73.249 214.642,73.402 213.939 C 74.115 210.666,74.961 206.356,75.108 205.243 C 75.183 204.680,75.348 204.111,75.474 203.977 C 75.600 203.843,75.702 203.441,75.700 203.082 C 75.697 202.396,76.341 199.145,76.745 197.808 C 76.875 197.376,76.982 196.721,76.982 196.352 C 76.982 195.984,77.097 195.611,77.238 195.524 C 77.379 195.437,77.494 195.132,77.494 194.847 C 77.494 194.051,78.761 192.465,80.047 191.652 L 81.202 190.921 200.256 190.921 L 319.309 190.921 320.465 191.652 C 321.751 192.465,323.018 194.051,323.018 194.847 C 323.018 195.132,323.118 195.428,323.240 195.503 C 323.362 195.579,323.534 196.132,323.621 196.733 C 323.709 197.334,323.962 198.747,324.183 199.872 C 324.404 200.997,324.642 202.321,324.712 202.813 C 324.782 203.306,324.936 203.939,325.053 204.220 C 325.170 204.501,325.463 205.882,325.705 207.289 C 325.946 208.696,326.246 210.111,326.371 210.434 C 326.496 210.757,326.598 211.400,326.598 211.862 C 326.598 212.324,326.685 212.788,326.790 212.892 C 326.958 213.058,327.349 215.044,327.775 217.903 C 327.849 218.395,328.010 219.028,328.133 219.309 C 328.256 219.591,328.414 220.224,328.485 220.716 C 328.555 221.208,328.794 222.474,329.015 223.529 C 329.236 224.584,329.483 225.908,329.562 226.471 C 329.642 227.033,329.806 227.724,329.927 228.005 C 330.048 228.286,330.209 228.919,330.285 229.412 C 330.595 231.433,331.120 234.168,331.267 234.527 C 331.352 234.738,331.482 235.313,331.554 235.806 C 331.626 236.298,331.798 237.219,331.936 237.852 C 332.074 238.485,332.324 239.808,332.493 240.793 C 332.661 241.777,332.892 242.813,333.007 243.095 C 333.122 243.376,333.274 244.009,333.344 244.501 C 333.414 244.994,333.653 246.317,333.873 247.442 C 334.094 248.568,334.347 249.980,334.435 250.581 C 334.523 251.182,334.695 251.736,334.817 251.811 C 334.939 251.887,335.038 252.400,335.038 252.951 C 335.038 254.335,333.038 254.248,363.043 254.166 L 389.898 254.092 391.944 253.087 C 394.312 251.923,396.237 250.115,397.151 248.197 C 397.483 247.501,397.857 246.731,397.982 246.487 C 398.273 245.918,398.287 11.662,397.995 11.058 C 397.878 10.814,397.468 9.967,397.086 9.176 C 395.757 6.427,392.737 4.192,389.529 3.583 C 388.219 3.335,12.592 3.241,11.381 3.489 M378.772 104.220 L 378.772 185.678 200.320 185.614 L 21.867 185.550 21.802 104.476 C 21.766 59.885,21.791 23.258,21.857 23.082 C 21.954 22.827,57.893 22.762,200.376 22.762 L 378.772 22.762 378.772 104.220 M113.299 85.080 C 110.705 85.198,106.813 86.086,103.964 87.210 C 103.198 87.512,100.444 88.847,100.139 89.064 C 99.992 89.168,99.039 89.807,98.022 90.484 C 94.898 92.562,91.840 95.712,89.654 99.105 C 88.352 101.126,87.926 101.968,86.676 104.987 C 86.449 105.537,85.790 107.750,85.420 109.207 C 84.207 113.981,84.747 121.218,86.707 126.471 C 87.204 127.804,89.407 132.122,89.772 132.481 C 89.844 132.551,90.236 133.127,90.643 133.760 C 92.103 136.029,98.186 141.688,99.165 141.688 C 99.320 141.688,99.484 141.787,99.531 141.909 C 99.749 142.473,106.225 145.257,107.338 145.265 C 107.646 145.267,107.960 145.369,108.036 145.491 C 108.112 145.614,108.780 145.808,109.522 145.923 C 111.677 146.258,289.898 146.183,291.432 145.847 C 294.845 145.099,296.797 144.422,299.314 143.110 C 300.799 142.336,303.014 140.986,303.325 140.666 C 303.395 140.593,303.913 140.200,304.476 139.791 C 305.630 138.952,308.859 135.754,309.532 134.783 C 312.295 130.795,313.641 128.347,314.451 125.831 C 314.700 125.058,314.995 124.194,315.107 123.913 C 315.314 123.392,315.450 122.711,315.847 120.205 C 316.387 116.791,315.958 109.688,315.083 107.545 C 314.968 107.263,314.802 106.704,314.714 106.302 C 314.558 105.587,314.167 104.644,312.842 101.790 C 309.511 94.612,301.379 88.059,293.223 85.982 C 292.660 85.838,291.739 85.569,291.176 85.383 C 290.258 85.080,119.723 84.789,113.299 85.080 M250.321 115.665 L 250.386 139.642 200.257 139.642 L 150.128 139.642 150.128 115.730 L 150.128 91.818 178.325 91.751 C 193.833 91.714,216.362 91.685,228.389 91.686 L 250.256 91.688 250.321 115.665 M119.437 94.116 C 122.837 95.001,126.544 96.568,126.812 97.231 C 126.858 97.347,127.010 97.442,127.148 97.442 C 127.820 97.442,130.960 100.305,132.339 102.175 C 132.754 102.737,133.157 103.254,133.235 103.325 C 133.761 103.801,135.740 107.915,136.064 109.207 C 136.812 112.186,136.934 113.115,136.934 115.857 C 136.933 118.682,136.761 120.261,136.332 121.355 C 136.221 121.637,135.927 122.483,135.678 123.235 C 134.493 126.811,131.042 131.384,127.833 133.632 C 119.128 139.727,107.124 138.759,99.767 131.368 C 96.453 128.038,95.167 125.776,93.569 120.460 C 93.141 119.037,93.095 111.987,93.507 110.870 C 93.663 110.448,94.003 109.412,94.264 108.568 C 96.096 102.636,100.985 97.695,107.786 94.904 C 110.354 93.850,116.755 93.417,119.437 94.116 M289.885 94.146 C 290.019 94.271,290.386 94.373,290.701 94.373 C 293.229 94.373,299.043 97.775,301.605 100.754 C 303.663 103.146,303.853 103.402,304.737 104.987 C 308.408 111.574,308.430 119.761,304.794 126.335 C 302.870 129.813,299.249 133.439,296.164 134.976 C 295.671 135.221,295.211 135.490,295.141 135.572 C 295.070 135.655,294.783 135.789,294.501 135.870 C 294.043 136.002,293.212 136.287,291.688 136.833 C 283.698 139.696,272.552 135.698,267.402 128.121 C 264.861 124.382,262.964 117.467,263.538 114.031 C 263.641 113.418,263.812 112.340,263.918 111.637 C 264.931 104.930,271.782 96.713,277.749 95.050 C 278.101 94.952,279.022 94.688,279.795 94.464 C 282.242 93.753,289.231 93.533,289.885 94.146 M81.893 195.659 C 81.316 196.197,81.278 196.307,80.798 198.849 C 80.639 199.693,80.417 200.844,80.304 201.407 C 80.191 201.969,79.976 203.063,79.826 203.836 C 79.292 206.593,78.737 209.351,78.513 210.358 C 78.388 210.921,78.099 212.359,77.870 213.555 C 77.641 214.751,77.348 216.218,77.218 216.816 C 76.757 218.942,76.515 220.105,76.087 222.251 C 75.849 223.446,75.557 224.885,75.439 225.448 C 75.321 226.010,75.041 227.391,74.817 228.517 C 74.593 229.642,74.292 231.138,74.148 231.841 C 74.004 232.545,73.783 233.638,73.657 234.271 C 73.056 237.289,72.886 238.115,72.500 239.898 C 72.272 240.953,71.994 242.334,71.882 242.967 C 71.771 243.600,71.363 245.614,70.976 247.442 C 70.590 249.271,70.178 251.228,70.061 251.790 C 69.944 252.353,69.771 253.130,69.677 253.517 L 69.506 254.220 200.098 254.220 L 330.691 254.220 330.675 253.645 C 330.661 253.110,330.528 252.354,329.957 249.552 C 329.542 247.515,328.652 243.098,328.373 241.688 C 328.220 240.914,327.992 239.879,327.866 239.386 C 327.739 238.894,327.455 237.455,327.234 236.189 C 327.013 234.923,326.727 233.485,326.599 232.992 C 326.472 232.500,326.304 231.752,326.227 231.330 C 326.059 230.411,325.356 226.879,325.055 225.448 C 324.937 224.885,324.657 223.504,324.433 222.379 C 323.995 220.179,323.632 218.384,323.297 216.752 C 323.181 216.189,322.852 214.578,322.566 213.171 C 322.279 211.765,321.970 210.269,321.878 209.847 C 321.512 208.162,321.258 206.937,320.844 204.859 C 320.606 203.664,320.317 202.225,320.203 201.662 C 320.089 201.100,319.875 200.006,319.728 199.233 C 319.275 196.865,318.930 195.940,318.347 195.532 C 317.848 195.182,305.309 195.141,200.119 195.141 L 82.449 195.141 81.893 195.659 M152.531 227.174 C 152.777 227.420,153.080 227.621,153.204 227.621 C 154.528 227.621,155.528 237.819,154.412 239.933 C 153.013 242.581,152.617 242.709,145.836 242.710 C 136.799 242.712,136.346 242.242,136.619 233.163 C 136.755 228.649,137.239 227.672,139.770 226.807 C 141.002 226.386,152.061 226.704,152.531 227.174 M261.895 227.293 C 263.681 228.411,263.811 228.910,263.811 234.655 C 263.811 242.474,263.479 242.791,255.429 242.662 L 250.470 242.583 249.531 241.867 C 247.856 240.588,247.709 240.059,247.614 234.994 C 247.468 227.167,248.041 226.608,256.138 226.685 C 260.656 226.728,261.061 226.771,261.895 227.293 M109.179 231.991 C 111.815 233.347,113.309 235.070,114.549 238.183 C 114.954 239.201,114.895 242.387,114.447 243.673 C 111.954 250.829,103.364 252.934,98.056 247.690 C 90.335 240.063,99.559 227.045,109.179 231.991 M299.444 231.683 C 307.511 234.717,307.456 246.713,299.361 249.885 C 296.761 250.904,292.971 250.857,291.906 249.792 C 291.809 249.695,291.560 249.616,291.352 249.616 C 290.484 249.616,287.764 246.995,286.998 245.420 C 282.948 237.098,290.800 228.432,299.444 231.683 " stroke="none" fill="#040404" fill-rule="evenodd"></path><path id="path2" d="M10.230 3.325 C 9.716 3.489,9.691 3.531,10.102 3.537 C 10.384 3.541,10.844 3.446,11.125 3.325 C 11.777 3.045,11.105 3.045,10.230 3.325 M2.206 10.879 C 2.118 11.108,2.075 64.140,2.109 128.729 L 2.173 246.164 2.301 128.389 C 2.438 2.860,2.444 10.258,2.206 10.879 M398.592 128.772 C 398.592 192.775,398.622 218.996,398.657 187.041 C 398.693 155.087,398.693 102.721,398.657 70.673 C 398.622 38.625,398.592 64.770,398.592 128.772 M22.166 23.188 C 22.072 23.282,21.995 59.766,21.995 104.263 L 21.995 185.166 200.225 185.166 L 378.454 185.166 378.551 161.317 C 378.605 148.200,378.647 111.746,378.646 80.307 L 378.645 23.146 200.490 23.082 C 102.506 23.046,22.259 23.094,22.166 23.188 M378.453 63.107 L 378.389 102.941 346.366 103.006 L 314.344 103.071 313.792 102.495 C 313.297 101.978,313.309 102.050,313.909 103.195 C 314.277 103.897,314.578 104.667,314.578 104.906 C 314.578 105.145,314.693 105.412,314.834 105.499 C 314.974 105.586,315.090 105.931,315.090 106.266 C 315.090 106.601,315.193 106.939,315.320 107.018 C 315.447 107.096,315.632 107.860,315.731 108.715 C 315.830 109.570,316.012 110.577,316.135 110.953 C 316.304 111.473,316.323 111.376,316.213 110.550 L 316.068 109.463 347.292 109.463 L 378.517 109.463 378.517 113.043 L 378.517 116.624 347.698 116.624 C 318.528 116.624,316.878 116.600,316.854 116.176 C 316.798 115.186,316.417 117.077,316.379 118.542 C 316.340 119.976,316.082 121.880,315.805 122.762 C 315.739 122.973,315.733 123.059,315.792 122.954 C 315.851 122.848,329.988 122.762,347.208 122.762 L 378.517 122.762 378.517 126.345 L 378.517 129.927 345.810 129.861 L 313.103 129.795 312.504 130.946 C 312.175 131.579,311.836 132.155,311.752 132.225 C 311.667 132.295,311.381 132.727,311.115 133.184 C 310.849 133.641,310.541 134.015,310.431 134.015 C 310.320 134.015,310.230 134.166,310.230 134.351 C 310.230 134.536,309.453 135.482,308.504 136.455 C 307.554 137.427,307.073 137.966,307.433 137.653 L 308.089 137.084 343.303 137.084 L 378.517 137.084 378.517 141.049 L 378.517 145.013 337.532 145.009 C 308.140 145.006,296.656 144.927,296.931 144.729 C 297.239 144.508,297.213 144.490,296.803 144.638 C 296.522 144.740,296.033 144.879,295.716 144.948 C 295.400 145.016,295.141 145.174,295.141 145.298 C 295.141 145.423,294.738 145.524,294.246 145.524 C 293.753 145.524,293.350 145.628,293.350 145.754 C 293.350 145.986,292.871 146.073,289.130 146.521 C 286.301 146.861,113.787 146.864,111.381 146.525 C 108.008 146.049,107.669 145.981,107.528 145.753 C 107.450 145.627,107.104 145.524,106.759 145.524 C 106.414 145.524,105.903 145.409,105.623 145.269 C 105.344 145.128,104.886 144.898,104.607 144.757 C 103.959 144.431,103.587 144.431,104.092 144.757 C 104.341 144.918,90.000 145.006,63.363 145.009 L 22.251 145.013 22.251 141.049 L 22.251 137.086 57.542 137.021 L 92.833 136.957 91.685 135.688 C 91.054 134.991,90.537 134.347,90.537 134.258 C 90.537 134.168,90.272 133.787,89.949 133.410 C 89.625 133.034,89.031 132.095,88.628 131.325 L 87.894 129.923 55.073 129.923 L 22.251 129.923 22.251 126.341 L 22.251 122.758 53.836 122.824 C 71.208 122.860,85.422 122.804,85.422 122.698 C 85.422 122.593,85.318 122.506,85.191 122.506 C 84.962 122.506,84.770 121.321,84.496 118.223 L 84.355 116.624 53.303 116.624 L 22.251 116.624 22.251 113.043 L 22.251 109.463 53.537 109.463 L 84.824 109.463 85.109 108.887 C 85.265 108.571,85.471 107.799,85.567 107.171 C 85.663 106.543,85.827 105.853,85.933 105.636 C 86.039 105.420,86.370 104.743,86.669 104.132 C 86.968 103.521,87.212 103.003,87.212 102.981 C 87.212 102.959,72.596 102.971,54.731 103.007 L 22.251 103.073 22.251 63.173 L 22.251 23.274 200.384 23.274 L 378.518 23.274 378.453 63.107 M44.261 38.545 C 43.405 38.713,41.991 39.832,41.545 40.694 C 41.238 41.288,41.176 43.605,41.176 54.541 L 41.176 67.675 41.904 68.822 C 43.065 70.652,42.814 70.625,57.718 70.537 C 75.232 70.434,73.274 72.456,73.274 54.476 L 73.274 41.304 72.688 40.483 C 72.366 40.032,71.733 39.399,71.281 39.077 L 70.460 38.491 57.673 38.456 C 50.639 38.437,44.604 38.477,44.261 38.545 M60.445 45.716 C 60.798 46.666,61.499 48.622,62.002 50.064 C 62.504 51.506,63.327 53.865,63.830 55.307 C 64.332 56.749,65.013 58.676,65.342 59.591 C 67.578 65.803,67.647 65.217,64.679 65.217 L 62.435 65.217 61.772 63.043 L 61.109 60.870 57.194 60.870 L 53.279 60.870 52.932 61.957 C 52.742 62.554,52.382 63.533,52.133 64.130 L 51.681 65.217 49.498 65.217 C 47.087 65.217,47.094 65.224,47.683 63.555 C 47.882 62.992,48.635 60.863,49.357 58.824 C 50.079 56.784,50.841 54.597,51.051 53.964 C 51.261 53.331,51.532 52.583,51.654 52.302 C 51.776 52.020,51.992 51.445,52.133 51.023 C 52.736 49.228,54.488 44.432,54.619 44.220 C 54.698 44.093,55.896 43.990,57.282 43.990 L 59.802 43.990 60.445 45.716 M56.777 49.710 C 56.777 49.903,56.269 51.597,55.647 53.476 C 54.306 57.529,54.228 57.289,56.900 57.289 C 59.543 57.289,59.893 57.178,59.587 56.436 C 59.208 55.520,57.545 50.012,57.545 49.674 C 57.545 49.502,57.372 49.361,57.161 49.361 C 56.950 49.361,56.777 49.518,56.777 49.710 M290.090 85.087 C 290.336 85.151,290.738 85.151,290.985 85.087 C 291.231 85.022,291.029 84.970,290.537 84.970 C 290.045 84.970,289.843 85.022,290.090 85.087 M302.813 90.003 C 303.165 90.290,303.568 90.527,303.708 90.527 C 303.982 90.529,303.520 90.175,302.685 89.744 C 302.346 89.569,302.389 89.655,302.813 90.003 M206.543 92.008 C 206.438 92.113,193.787 92.257,178.431 92.327 L 150.512 92.455 150.512 115.729 L 150.512 139.003 178.538 139.130 C 197.130 139.215,206.571 139.172,206.585 139.003 C 206.596 138.862,206.910 137.366,207.283 135.678 C 208.799 128.811,209.295 124.033,209.313 116.113 C 209.333 107.668,208.778 102.492,207.025 94.757 C 206.802 93.772,206.597 92.794,206.570 92.583 C 206.528 92.246,209.151 92.184,228.389 92.069 L 250.256 91.939 228.495 91.878 C 216.527 91.844,206.649 91.902,206.543 92.008 M93.466 93.670 L 92.455 94.757 93.542 93.746 C 94.553 92.806,94.747 92.583,94.553 92.583 C 94.511 92.583,94.022 93.072,93.466 93.670 M151.702 94.054 C 155.307 100.498,156.853 105.573,157.557 113.260 C 157.954 117.598,157.691 120.460,156.355 126.343 C 156.147 127.257,155.878 128.235,155.756 128.517 C 155.634 128.798,155.399 129.488,155.234 130.051 C 154.819 131.467,151.844 137.583,151.191 138.363 L 150.656 139.003 150.648 115.921 C 150.643 103.226,150.726 92.839,150.831 92.839 C 150.937 92.839,151.329 93.386,151.702 94.054 M109.719 94.633 C 109.449 94.810,109.600 94.836,110.230 94.720 C 111.333 94.518,111.541 94.372,110.720 94.377 C 110.380 94.379,109.930 94.494,109.719 94.633 M91.546 95.844 L 90.665 96.803 91.624 95.922 C 92.517 95.101,92.701 94.885,92.505 94.885 C 92.463 94.885,92.031 95.316,91.546 95.844 M297.059 97.356 C 297.712 97.975,299.318 99.022,298.930 98.577 C 298.693 98.305,298.118 97.864,297.651 97.598 C 297.185 97.332,296.918 97.223,297.059 97.356 M126.854 97.711 C 127.741 98.313,128.247 98.488,127.621 97.977 C 127.270 97.689,126.867 97.453,126.726 97.452 C 126.586 97.451,126.643 97.567,126.854 97.711 M128.416 98.785 C 128.479 98.820,129.275 99.540,130.185 100.384 L 131.841 101.918 130.315 100.320 C 129.475 99.441,128.679 98.721,128.546 98.721 C 128.413 98.721,128.354 98.750,128.416 98.785 M300.654 100.272 C 301.208 100.914,301.714 101.399,301.778 101.350 C 301.841 101.301,301.387 100.776,300.769 100.183 L 299.645 99.105 300.654 100.272 M269.933 100.575 L 269.182 101.407 270.013 100.655 C 270.788 99.955,270.962 99.744,270.764 99.744 C 270.720 99.744,270.346 100.118,269.933 100.575 M306.398 110.379 C 306.400 110.649,306.519 111.042,306.661 111.253 C 306.851 111.533,306.875 111.430,306.749 110.870 C 306.539 109.929,306.393 109.725,306.398 110.379 M84.485 113.555 C 84.485 114.610,84.530 115.042,84.585 114.514 C 84.640 113.987,84.640 113.123,84.585 112.596 C 84.530 112.068,84.485 112.500,84.485 113.555 M264.008 113.043 C 264.008 113.676,264.058 113.935,264.119 113.619 C 264.180 113.302,264.180 112.785,264.119 112.468 C 264.058 112.152,264.008 112.410,264.008 113.043 M136.378 112.788 C 136.378 113.139,136.466 113.772,136.573 114.194 C 136.747 114.879,136.768 114.893,136.768 114.322 C 136.768 113.971,136.680 113.338,136.573 112.916 C 136.399 112.231,136.378 112.217,136.378 112.788 M306.975 113.811 C 306.975 114.444,307.025 114.703,307.086 114.386 C 307.147 114.070,307.147 113.552,307.086 113.235 C 307.025 112.919,306.975 113.178,306.975 113.811 M93.441 115.473 C 93.440 116.739,93.484 117.289,93.537 116.696 C 93.591 116.102,93.592 115.066,93.539 114.394 C 93.486 113.722,93.442 114.207,93.441 115.473 M316.428 114.322 C 316.428 114.815,316.480 115.016,316.545 114.770 C 316.609 114.524,316.609 114.121,316.545 113.875 C 316.480 113.629,316.428 113.830,316.428 114.322 M307.220 115.857 C 307.220 116.349,307.273 116.551,307.337 116.304 C 307.402 116.058,307.402 115.655,307.337 115.409 C 307.273 115.163,307.220 115.364,307.220 115.857 M264.015 117.647 C 264.015 118.421,264.063 118.737,264.122 118.350 C 264.180 117.964,264.180 117.331,264.122 116.944 C 264.063 116.557,264.015 116.873,264.015 117.647 M306.970 117.775 C 306.973 118.338,307.025 118.538,307.086 118.220 C 307.147 117.901,307.145 117.441,307.081 117.197 C 307.017 116.952,306.967 117.212,306.970 117.775 M99.744 131.074 C 100.508 131.848,101.191 132.481,101.261 132.481 C 101.332 132.481,100.764 131.848,100.000 131.074 C 99.236 130.301,98.553 129.668,98.483 129.668 C 98.413 129.668,98.980 130.301,99.744 131.074 M130.170 131.138 L 128.772 132.609 130.243 131.211 C 131.052 130.442,131.714 129.780,131.714 129.740 C 131.714 129.550,131.469 129.772,130.170 131.138 M110.507 136.921 C 110.566 136.972,111.132 137.082,111.765 137.165 C 112.533 137.267,112.746 137.242,112.404 137.091 C 111.916 136.875,110.285 136.729,110.507 136.921 M118.478 137.005 C 118.724 137.069,119.127 137.069,119.373 137.005 C 119.620 136.941,119.418 136.888,118.926 136.888 C 118.434 136.888,118.232 136.941,118.478 137.005 M281.138 137.005 C 281.384 137.069,281.787 137.069,282.033 137.005 C 282.279 136.941,282.078 136.888,281.586 136.888 C 281.093 136.888,280.892 136.941,281.138 137.005 M288.619 137.084 C 287.967 137.364,288.640 137.364,289.514 137.084 C 290.028 136.920,290.053 136.878,289.642 136.872 C 289.361 136.868,288.900 136.964,288.619 137.084 M228.772 160.612 C 229.898 160.913,231.451 161.331,232.225 161.541 C 232.999 161.750,235.588 162.433,237.980 163.058 C 240.371 163.683,243.824 164.600,245.652 165.096 C 247.481 165.592,249.322 166.070,249.744 166.158 C 253.696 166.983,252.246 167.010,207.795 166.944 L 164.066 166.880 163.989 165.665 L 163.911 164.450 192.441 164.450 L 220.972 164.450 220.972 161.679 C 220.972 160.156,221.036 158.844,221.115 158.766 C 221.245 158.636,222.756 159.000,228.772 160.612 M141.517 191.240 C 174.128 191.276,227.414 191.276,259.931 191.240 C 292.449 191.205,265.767 191.175,200.639 191.175 C 135.512 191.175,108.906 191.205,141.517 191.240 M76.872 198.100 C 76.778 198.475,76.751 198.831,76.811 198.891 C 76.871 198.951,76.998 198.694,77.092 198.319 C 77.186 197.945,77.213 197.589,77.153 197.528 C 77.093 197.468,76.967 197.725,76.872 198.100 M80.211 199.371 C 80.123 199.599,80.061 199.978,80.073 200.213 C 80.085 200.447,80.197 200.300,80.320 199.885 C 80.562 199.078,80.476 198.678,80.211 199.371 M321.384 206.266 C 321.594 207.206,321.740 207.411,321.735 206.756 C 321.733 206.487,321.614 206.093,321.472 205.882 C 321.282 205.602,321.258 205.706,321.384 206.266 M78.420 208.322 C 78.333 208.550,78.271 208.929,78.283 209.164 C 78.295 209.399,78.406 209.251,78.530 208.836 C 78.771 208.029,78.686 207.630,78.420 208.322 M322.542 212.020 C 322.542 212.231,322.641 212.634,322.762 212.916 C 322.901 213.238,322.982 213.285,322.982 213.043 C 322.982 212.832,322.883 212.430,322.762 212.148 C 322.624 211.826,322.542 211.779,322.542 212.020 M327.625 219.075 C 327.628 219.345,327.746 219.738,327.889 219.949 C 328.079 220.229,328.102 220.126,327.977 219.565 C 327.767 218.625,327.620 218.421,327.625 219.075 M75.351 223.411 C 75.264 223.640,75.202 224.019,75.214 224.254 C 75.226 224.488,75.337 224.341,75.461 223.926 C 75.702 223.119,75.617 222.719,75.351 223.411 M71.483 224.297 C 71.386 224.739,71.360 225.154,71.425 225.219 C 71.490 225.284,71.617 224.970,71.707 224.520 C 71.920 223.454,71.714 223.248,71.483 224.297 M325.619 226.982 C 325.615 227.263,325.710 227.724,325.831 228.005 C 326.111 228.657,326.111 227.984,325.831 227.110 C 325.667 226.596,325.625 226.571,325.619 226.982 M142.789 227.045 C 144.450 227.090,147.097 227.090,148.672 227.045 C 150.246 227.000,148.887 226.964,145.652 226.964 C 142.417 226.964,141.129 227.001,142.789 227.045 M253.530 227.045 C 254.909 227.091,257.095 227.091,258.389 227.045 C 259.683 226.998,258.555 226.961,255.882 226.961 C 253.210 226.961,252.151 226.999,253.530 227.045 M329.416 227.771 C 329.418 228.040,329.536 228.434,329.679 228.645 C 329.869 228.925,329.893 228.821,329.767 228.261 C 329.557 227.320,329.410 227.116,329.416 227.771 M137.853 228.260 C 137.523 228.611,137.301 228.941,137.360 228.993 C 137.420 229.046,137.736 228.759,138.063 228.355 C 138.795 227.452,138.666 227.394,137.853 228.260 M74.059 229.814 C 73.965 230.188,73.937 230.544,73.998 230.605 C 74.058 230.665,74.184 230.408,74.278 230.033 C 74.372 229.658,74.400 229.302,74.340 229.242 C 74.280 229.182,74.153 229.439,74.059 229.814 M136.935 234.527 C 136.935 237.129,136.973 238.194,137.019 236.893 C 137.066 235.591,137.066 233.462,137.019 232.161 C 136.973 230.860,136.935 231.925,136.935 234.527 M263.534 234.655 C 263.534 237.327,263.572 238.386,263.618 237.007 C 263.664 235.628,263.664 233.442,263.617 232.148 C 263.571 230.854,263.533 231.982,263.534 234.655 M104.668 231.378 C 104.914 231.443,105.316 231.443,105.563 231.378 C 105.809 231.314,105.607 231.261,105.115 231.261 C 104.623 231.261,104.421 231.314,104.668 231.378 M295.332 231.383 C 295.649 231.444,296.167 231.444,296.483 231.383 C 296.800 231.322,296.541 231.272,295.908 231.272 C 295.275 231.272,295.016 231.322,295.332 231.383 M326.763 232.737 C 326.966 233.840,327.111 234.048,327.106 233.227 C 327.104 232.887,326.989 232.436,326.851 232.225 C 326.674 231.955,326.648 232.107,326.763 232.737 M69.725 232.874 C 69.637 233.103,69.575 233.482,69.587 233.717 C 69.599 233.951,69.711 233.804,69.834 233.389 C 70.076 232.582,69.990 232.182,69.725 232.874 M301.023 232.817 C 301.023 232.861,301.397 233.235,301.854 233.648 L 302.685 234.399 301.934 233.568 C 301.234 232.793,301.023 232.619,301.023 232.817 M286.335 238.509 C 286.241 238.884,286.214 239.240,286.274 239.300 C 286.334 239.361,286.461 239.103,286.555 238.729 C 286.649 238.354,286.676 237.998,286.616 237.937 C 286.556 237.877,286.429 238.135,286.335 238.509 M331.757 239.130 C 331.770 239.795,332.173 240.886,332.182 240.281 C 332.186 240.000,332.090 239.540,331.969 239.258 C 331.835 238.945,331.752 238.895,331.757 239.130 M95.476 240.793 C 95.477 241.637,95.525 241.951,95.582 241.492 C 95.639 241.032,95.638 240.341,95.579 239.957 C 95.521 239.573,95.474 239.949,95.476 240.793 M153.641 240.475 L 153.190 241.304 153.705 240.701 C 154.143 240.187,154.377 239.638,154.156 239.644 C 154.121 239.644,153.889 240.018,153.641 240.475 M262.421 240.989 C 261.693 241.887,261.664 241.963,262.253 241.432 C 262.865 240.881,263.591 239.888,263.372 239.902 C 263.332 239.905,262.904 240.394,262.421 240.989 M137.340 240.319 C 137.340 240.457,137.714 240.907,138.171 241.320 L 139.003 242.072 138.235 241.178 C 137.813 240.686,137.439 240.235,137.404 240.176 C 137.369 240.117,137.340 240.181,137.340 240.319 M71.771 241.058 C 71.683 241.287,71.621 241.666,71.633 241.901 C 71.645 242.135,71.757 241.988,71.881 241.573 C 72.122 240.766,72.036 240.366,71.771 241.058 M95.656 243.116 C 95.658 243.386,95.777 243.779,95.920 243.990 C 96.109 244.270,96.133 244.166,96.008 243.606 C 95.797 242.666,95.651 242.462,95.656 243.116 M112.531 246.355 C 112.155 246.870,112.093 247.048,112.369 246.824 C 112.789 246.484,113.423 245.524,113.228 245.524 C 113.180 245.524,112.866 245.898,112.531 246.355 M398.179 246.236 C 398.095 246.744,398.133 246.982,398.274 246.841 C 398.403 246.712,398.466 246.334,398.414 246.001 C 398.333 245.489,398.297 245.525,398.179 246.236 M302.162 247.634 L 301.151 248.721 302.238 247.710 C 303.249 246.770,303.442 246.547,303.249 246.547 C 303.207 246.547,302.718 247.036,302.162 247.634 M70.479 247.461 C 70.385 247.836,70.357 248.192,70.417 248.252 C 70.477 248.312,70.604 248.055,70.698 247.680 C 70.792 247.305,70.820 246.949,70.759 246.889 C 70.699 246.829,70.573 247.086,70.479 247.461 M329.824 247.698 C 330.034 248.639,330.180 248.843,330.175 248.188 C 330.173 247.919,330.054 247.526,329.912 247.315 C 329.722 247.034,329.698 247.138,329.824 247.698 M333.672 248.465 C 333.757 249.028,333.870 249.536,333.921 249.595 C 334.115 249.815,333.970 248.445,333.748 247.954 C 333.586 247.597,333.563 247.752,333.672 248.465 M396.812 249.255 C 396.574 249.619,396.423 249.961,396.476 250.014 C 396.530 250.068,396.776 249.770,397.023 249.353 C 397.574 248.420,397.409 248.343,396.812 249.255 M296.675 250.128 C 296.169 250.290,296.142 250.333,296.547 250.333 C 296.829 250.333,297.347 250.240,297.698 250.128 C 298.204 249.966,298.231 249.923,297.826 249.923 C 297.545 249.923,297.027 250.015,296.675 250.128 M4.348 250.464 C 4.348 250.508,4.722 250.882,5.179 251.295 L 6.010 252.046 5.259 251.215 C 4.559 250.440,4.348 250.266,4.348 250.464 M395.252 251.215 L 394.501 252.046 395.332 251.295 C 396.107 250.595,396.281 250.384,396.084 250.384 C 396.040 250.384,395.666 250.758,395.252 251.215 " stroke="none" fill="#a4a4a4" fill-rule="evenodd"></path><path id="path3" d="M11.455 3.279 C 11.214 3.374,96.243 3.453,200.408 3.453 C 304.574 3.453,389.534 3.378,389.209 3.286 C 388.420 3.064,12.015 3.056,11.455 3.279 M9.207 3.836 C 8.866 4.057,8.866 4.084,9.207 4.084 C 9.418 4.084,9.763 3.973,9.974 3.836 C 10.315 3.616,10.315 3.588,9.974 3.588 C 9.763 3.588,9.418 3.700,9.207 3.836 M393.734 5.254 C 394.015 5.463,394.756 6.121,395.381 6.717 C 396.079 7.383,396.306 7.523,395.970 7.080 C 395.414 6.347,393.664 4.853,393.379 4.867 C 393.293 4.872,393.453 5.046,393.734 5.254 M5.290 6.345 C 4.772 6.876,4.348 7.378,4.348 7.462 C 4.348 7.545,4.811 7.149,5.377 6.583 C 5.943 6.017,6.367 5.515,6.320 5.467 C 6.272 5.419,5.809 5.815,5.290 6.345 M3.312 8.976 C 3.018 9.552,2.821 10.068,2.875 10.121 C 2.929 10.175,3.223 9.704,3.529 9.074 C 4.226 7.639,4.038 7.554,3.312 8.976 M2.448 11.144 C 2.354 11.518,2.326 11.874,2.387 11.935 C 2.447 11.995,2.573 11.738,2.667 11.363 C 2.761 10.988,2.789 10.632,2.729 10.572 C 2.668 10.511,2.542 10.769,2.448 11.144 M398.336 128.772 C 398.336 192.634,398.366 218.721,398.402 186.744 C 398.437 154.766,398.437 102.516,398.402 70.631 C 398.366 38.747,398.336 64.910,398.336 128.772 M21.857 23.082 C 21.790 23.258,21.766 41.355,21.802 63.299 L 21.869 103.197 21.932 63.108 L 21.995 23.018 200.448 22.954 L 378.900 22.890 200.440 22.826 C 57.859 22.775,21.954 22.826,21.857 23.082 M113.299 84.891 C 112.385 84.972,151.566 85.038,200.369 85.038 C 249.172 85.038,288.762 84.966,288.348 84.877 C 287.408 84.675,115.576 84.688,113.299 84.891 M109.335 85.422 C 108.639 85.599,108.627 85.618,109.207 85.630 C 109.559 85.636,110.077 85.543,110.358 85.422 C 110.989 85.151,110.400 85.151,109.335 85.422 M290.921 85.422 C 291.202 85.543,291.662 85.638,291.944 85.634 C 292.355 85.628,292.330 85.587,291.816 85.422 C 290.941 85.142,290.269 85.142,290.921 85.422 M293.095 85.922 C 293.306 86.065,293.699 86.183,293.968 86.185 C 294.623 86.191,294.419 86.044,293.478 85.834 C 292.918 85.708,292.814 85.732,293.095 85.922 M106.394 86.201 C 106.114 86.391,106.217 86.414,106.777 86.289 C 107.718 86.079,107.922 85.932,107.268 85.937 C 106.998 85.940,106.605 86.058,106.394 86.201 M101.535 88.107 C 100.902 88.446,100.475 88.729,100.586 88.735 C 100.857 88.751,102.813 87.746,102.813 87.591 C 102.813 87.421,102.824 87.417,101.535 88.107 M99.488 89.271 L 98.849 89.784 99.552 89.480 C 99.939 89.313,100.256 89.080,100.256 88.962 C 100.256 88.670,100.220 88.684,99.488 89.271 M301.918 89.688 C 302.059 89.824,302.807 90.363,303.581 90.886 C 304.597 91.574,304.762 91.640,304.175 91.123 C 303.418 90.457,301.357 89.146,301.918 89.688 M97.776 90.428 L 97.059 91.086 97.890 90.508 C 98.347 90.190,98.721 89.893,98.721 89.850 C 98.721 89.648,98.438 89.821,97.776 90.428 M214.194 91.748 C 234.946 91.924,250.324 91.926,250.216 91.752 C 250.151 91.646,240.236 91.587,228.182 91.620 C 216.128 91.653,209.834 91.711,214.194 91.748 M94.871 92.775 L 93.990 93.734 94.949 92.853 C 95.476 92.368,95.908 91.936,95.908 91.894 C 95.908 91.698,95.692 91.882,94.871 92.775 M150.128 115.729 L 150.128 139.642 178.325 139.579 L 206.522 139.516 178.453 139.450 L 150.384 139.384 150.384 115.729 L 150.384 92.074 178.325 92.008 L 206.266 91.941 178.197 91.879 L 150.128 91.816 150.128 115.729 M305.144 92.136 C 305.206 92.171,306.175 93.063,307.296 94.118 L 309.335 96.036 307.423 94.054 C 306.372 92.964,305.403 92.072,305.271 92.072 C 305.138 92.072,305.081 92.100,305.144 92.136 M110.742 94.125 C 110.474 94.304,110.705 94.330,111.509 94.214 C 112.942 94.006,113.146 93.861,111.999 93.866 C 111.519 93.868,110.953 93.985,110.742 94.125 M117.413 93.954 C 117.471 94.005,118.037 94.122,118.670 94.214 C 119.474 94.330,119.705 94.304,119.437 94.125 C 119.092 93.895,117.156 93.732,117.413 93.954 M281.202 94.124 C 280.860 94.276,281.073 94.300,281.841 94.199 C 282.474 94.115,283.040 94.005,283.099 93.954 C 283.321 93.762,281.691 93.908,281.202 94.124 M287.745 93.955 C 287.998 94.174,290.014 94.305,289.883 94.093 C 289.804 93.966,289.267 93.862,288.689 93.862 C 288.111 93.862,287.686 93.904,287.745 93.955 M108.568 94.629 L 108.056 94.849 108.568 94.863 C 108.849 94.871,109.252 94.766,109.463 94.629 C 109.971 94.301,109.332 94.301,108.568 94.629 M120.716 94.591 C 120.927 94.715,121.445 94.891,121.867 94.982 C 122.358 95.088,122.496 95.067,122.251 94.923 C 122.040 94.799,121.522 94.624,121.100 94.532 C 120.609 94.426,120.471 94.447,120.716 94.591 M279.156 94.629 C 278.834 94.768,278.786 94.849,279.028 94.849 C 279.239 94.849,279.642 94.750,279.923 94.629 C 280.246 94.491,280.293 94.409,280.051 94.409 C 279.840 94.409,279.437 94.508,279.156 94.629 M92.072 95.524 C 91.594 96.017,91.313 96.411,91.446 96.401 C 91.676 96.383,93.257 94.629,93.042 94.629 C 92.986 94.629,92.549 95.032,92.072 95.524 M277.621 95.067 C 277.340 95.135,277.003 95.292,276.871 95.417 C 276.740 95.541,277.015 95.534,277.482 95.400 C 278.800 95.022,278.911 94.757,277.621 95.067 M292.839 95.098 C 293.050 95.228,293.510 95.412,293.862 95.506 C 294.306 95.624,294.384 95.604,294.118 95.440 C 293.907 95.309,293.446 95.126,293.095 95.032 C 292.650 94.913,292.572 94.933,292.839 95.098 M103.900 96.705 C 102.746 97.444,102.853 97.614,104.028 96.907 C 105.217 96.192,105.255 96.163,104.966 96.168 C 104.837 96.170,104.357 96.412,103.900 96.705 M310.028 97.193 C 310.491 97.830,311.076 98.635,311.328 98.983 C 311.769 99.592,311.769 99.584,311.328 98.760 C 311.076 98.289,310.491 97.483,310.028 96.970 L 309.186 96.036 310.028 97.193 M102.174 97.855 C 101.893 98.073,101.439 98.412,101.166 98.608 C 100.893 98.805,100.721 99.015,100.783 99.075 C 100.845 99.136,101.355 98.795,101.918 98.318 C 102.946 97.446,103.129 97.115,102.174 97.855 M128.443 98.557 C 129.187 99.170,129.838 99.636,129.890 99.592 C 130.013 99.489,129.507 99.016,128.342 98.146 C 126.875 97.050,126.941 97.319,128.443 98.557 M297.720 97.506 C 297.778 97.542,298.171 97.858,298.593 98.210 L 299.361 98.849 298.741 98.146 C 298.400 97.759,298.006 97.442,297.867 97.442 C 297.727 97.442,297.661 97.471,297.720 97.506 M270.068 100.192 L 268.670 101.662 270.141 100.264 C 270.949 99.496,271.611 98.834,271.611 98.794 C 271.611 98.604,271.367 98.826,270.068 100.192 M99.361 100.256 C 98.956 100.678,98.696 101.023,98.782 101.023 C 98.867 101.023,99.283 100.678,99.705 100.256 C 100.127 99.834,100.387 99.488,100.284 99.488 C 100.180 99.488,99.765 99.834,99.361 100.256 M301.535 100.895 C 302.012 101.387,302.460 101.790,302.530 101.790 C 302.600 101.790,302.267 101.387,301.790 100.895 C 301.313 100.403,300.865 100.000,300.795 100.000 C 300.724 100.000,301.057 100.403,301.535 100.895 M86.945 103.733 C 86.651 104.380,86.472 104.972,86.549 105.049 C 86.626 105.125,86.759 104.970,86.846 104.704 C 86.980 104.289,87.339 103.431,87.663 102.749 C 87.713 102.644,87.693 102.558,87.617 102.558 C 87.542 102.558,87.240 103.087,86.945 103.733 M303.621 103.581 C 303.933 104.003,304.231 104.348,304.283 104.348 C 304.334 104.348,304.173 104.003,303.924 103.581 C 303.674 103.159,303.377 102.813,303.262 102.813 C 303.147 102.813,303.309 103.159,303.621 103.581 M267.105 103.645 C 266.225 105.138,266.167 105.266,266.616 104.731 C 267.135 104.113,267.583 103.325,267.415 103.325 C 267.348 103.325,267.209 103.469,267.105 103.645 M96.485 103.900 C 96.123 104.357,95.614 105.371,95.746 105.371 C 95.807 105.371,96.095 104.968,96.386 104.476 C 96.913 103.581,96.962 103.297,96.485 103.900 M305.106 106.161 C 305.894 107.826,306.339 108.490,305.908 107.356 C 305.539 106.387,304.615 104.604,304.481 104.604 C 304.420 104.604,304.701 105.304,305.106 106.161 M86.061 105.882 C 85.965 106.185,85.944 106.490,86.015 106.560 C 86.085 106.631,86.221 106.441,86.317 106.138 C 86.413 105.836,86.434 105.531,86.364 105.460 C 86.294 105.390,86.157 105.580,86.061 105.882 M314.782 106.666 C 314.843 107.083,314.995 107.486,315.119 107.563 C 315.243 107.640,315.357 108.070,315.371 108.519 C 315.385 108.968,315.496 109.623,315.617 109.974 C 315.767 110.406,315.792 110.157,315.694 109.207 C 315.614 108.434,315.446 107.691,315.319 107.558 C 315.193 107.424,315.090 107.057,315.090 106.741 C 315.090 106.426,314.995 106.110,314.880 106.039 C 314.765 105.968,314.721 106.250,314.782 106.666 M135.319 107.737 C 135.879 109.158,136.255 109.756,135.935 108.718 C 135.630 107.728,135.042 106.394,134.911 106.394 C 134.844 106.394,135.028 106.998,135.319 107.737 M85.564 107.481 C 85.510 107.657,85.401 108.203,85.321 108.696 C 85.139 109.811,85.542 109.173,85.764 107.992 C 85.914 107.195,85.767 106.818,85.564 107.481 M94.008 109.098 C 93.914 109.472,93.886 109.828,93.947 109.889 C 94.007 109.949,94.133 109.692,94.227 109.317 C 94.321 108.942,94.349 108.586,94.289 108.526 C 94.228 108.465,94.102 108.723,94.008 109.098 M21.841 113.043 C 21.841 115.083,21.880 115.918,21.929 114.898 C 21.978 113.878,21.978 112.209,21.929 111.189 C 21.880 110.169,21.841 111.004,21.841 113.043 M136.217 110.614 C 136.428 111.554,136.574 111.758,136.569 111.104 C 136.567 110.834,136.448 110.441,136.305 110.230 C 136.116 109.950,136.092 110.053,136.217 110.614 M264.113 110.328 C 264.017 110.579,263.946 110.976,263.955 111.210 C 263.966 111.493,264.054 111.428,264.218 111.019 C 264.354 110.680,264.425 110.283,264.376 110.137 C 264.328 109.992,264.210 110.077,264.113 110.328 M306.821 111.125 C 307.015 112.390,307.162 112.605,307.157 111.616 C 307.155 111.205,307.043 110.697,306.909 110.486 C 306.742 110.225,306.714 110.429,306.821 111.125 M84.794 111.648 C 84.696 112.301,84.674 112.892,84.744 112.962 C 84.815 113.033,84.952 112.557,85.050 111.904 C 85.148 111.252,85.170 110.661,85.100 110.590 C 85.030 110.520,84.892 110.996,84.794 111.648 M93.510 110.879 C 93.422 111.108,93.362 111.545,93.377 111.850 C 93.393 112.200,93.480 112.075,93.613 111.511 C 93.836 110.560,93.775 110.187,93.510 110.879 M136.701 115.857 C 136.701 117.816,136.779 119.221,136.875 118.980 C 136.970 118.739,137.048 117.334,137.048 115.857 C 137.048 114.380,136.970 112.974,136.875 112.733 C 136.779 112.492,136.701 113.898,136.701 115.857 M316.166 115.345 C 316.134 117.104,316.048 119.003,315.975 119.565 C 315.863 120.440,315.882 120.499,316.113 119.972 C 316.273 119.606,316.350 117.896,316.304 115.752 L 316.225 112.148 316.166 115.345 M263.588 113.363 C 263.380 114.139,263.413 116.264,263.651 117.519 C 263.786 118.229,263.840 117.663,263.828 115.666 C 263.809 112.518,263.811 112.533,263.588 113.363 M93.185 115.473 C 93.185 116.739,93.228 117.289,93.282 116.696 C 93.335 116.102,93.336 115.066,93.283 114.394 C 93.230 113.722,93.186 114.207,93.185 115.473 M84.778 119.698 C 84.915 120.921,85.279 122.601,85.581 123.402 C 85.634 123.542,85.614 123.254,85.538 122.762 C 85.462 122.270,85.304 121.143,85.187 120.258 C 84.924 118.265,84.563 117.770,84.778 119.698 M93.354 119.331 C 93.356 119.741,93.476 120.249,93.620 120.460 C 93.807 120.735,93.832 120.554,93.710 119.821 C 93.497 118.552,93.349 118.348,93.354 119.331 M306.944 119.736 C 306.923 120.111,306.839 120.629,306.758 120.887 C 306.619 121.330,306.627 121.331,306.902 120.901 C 307.063 120.652,307.146 120.134,307.088 119.751 L 306.982 119.054 306.944 119.736 M263.943 120.098 C 263.945 120.368,264.063 120.761,264.206 120.972 C 264.396 121.252,264.419 121.149,264.294 120.588 C 264.084 119.648,263.937 119.444,263.943 120.098 M136.347 120.376 C 136.330 120.540,136.243 120.885,136.152 121.143 C 136.023 121.506,136.057 121.546,136.303 121.319 C 136.478 121.158,136.566 120.813,136.499 120.551 C 136.431 120.290,136.363 120.211,136.347 120.376 M93.898 121.483 C 93.898 121.694,93.997 122.097,94.118 122.379 C 94.256 122.701,94.337 122.748,94.337 122.506 C 94.337 122.295,94.239 121.893,94.118 121.611 C 93.979 121.289,93.898 121.242,93.898 121.483 M315.505 121.877 C 315.417 122.105,315.356 122.542,315.368 122.847 C 315.385 123.240,315.463 123.151,315.639 122.542 C 315.893 121.657,315.789 121.137,315.505 121.877 M21.841 126.343 C 21.841 128.382,21.880 129.217,21.929 128.197 C 21.978 127.177,21.978 125.508,21.929 124.488 C 21.880 123.469,21.841 124.303,21.841 126.343 M305.441 124.558 C 305.145 125.258,304.957 125.831,305.024 125.831 C 305.196 125.831,306.201 123.507,306.080 123.386 C 306.024 123.330,305.737 123.858,305.441 124.558 M135.081 124.284 C 134.932 124.713,134.864 125.064,134.930 125.064 C 135.103 125.064,135.585 123.735,135.459 123.609 C 135.401 123.551,135.231 123.854,135.081 124.284 M315.004 123.956 C 314.910 124.049,314.841 124.366,314.850 124.659 C 314.865 125.149,314.886 125.142,315.111 124.579 C 315.362 123.953,315.310 123.650,315.004 123.956 M266.503 126.756 C 266.507 126.880,266.823 127.332,267.206 127.759 C 267.978 128.620,267.910 128.401,267.053 127.267 C 266.747 126.862,266.499 126.631,266.503 126.756 M303.621 127.877 C 303.309 128.299,303.147 128.645,303.262 128.645 C 303.377 128.645,303.674 128.299,303.924 127.877 C 304.173 127.455,304.334 127.110,304.283 127.110 C 304.231 127.110,303.933 127.455,303.621 127.877 M97.147 128.389 C 98.079 129.808,101.413 133.128,102.586 133.805 C 103.158 134.135,103.235 134.152,102.813 133.855 C 101.990 133.275,98.016 129.298,97.097 128.133 C 96.425 127.281,96.428 127.294,97.147 128.389 M130.414 130.974 C 129.067 132.366,128.014 133.504,128.076 133.504 C 128.283 133.504,132.015 129.802,132.523 129.092 C 133.269 128.052,133.095 128.206,130.414 130.974 M312.803 129.572 C 312.502 130.082,312.310 130.553,312.376 130.620 C 312.442 130.686,312.737 130.269,313.031 129.692 C 313.692 128.396,313.543 128.317,312.803 129.572 M300.653 131.281 C 299.394 132.572,298.818 133.264,299.374 132.820 C 300.323 132.061,301.577 130.789,302.669 129.476 C 303.620 128.334,302.898 128.980,300.653 131.281 M87.724 129.284 C 87.724 129.499,88.994 131.784,89.282 132.084 C 89.723 132.546,89.512 131.956,88.875 130.946 C 88.523 130.389,88.235 129.823,88.235 129.688 C 88.235 129.553,88.120 129.371,87.980 129.284 C 87.839 129.197,87.724 129.197,87.724 129.284 M269.821 131.074 C 270.442 131.707,270.999 132.225,271.058 132.225 C 271.274 132.225,269.174 129.971,268.937 129.947 C 268.802 129.934,269.200 130.441,269.821 131.074 M311.023 132.545 C 310.449 133.424,309.791 134.431,309.562 134.783 L 309.144 135.422 309.698 134.783 C 310.002 134.431,310.627 133.568,311.086 132.864 C 312.222 131.126,312.325 130.946,312.186 130.946 C 312.120 130.946,311.597 131.666,311.023 132.545 M271.364 132.417 C 271.368 132.522,271.684 132.830,272.067 133.100 L 272.762 133.591 272.142 132.908 C 271.491 132.190,271.350 132.102,271.364 132.417 M89.938 133.248 C 90.188 133.670,90.477 134.015,90.580 134.015 C 90.684 134.015,90.573 133.671,90.333 133.250 C 90.094 132.829,89.805 132.483,89.691 132.482 C 89.578 132.482,89.689 132.826,89.938 133.248 M296.292 134.675 C 295.729 135.011,295.384 135.287,295.524 135.289 C 295.832 135.293,297.442 134.334,297.442 134.147 C 297.442 133.980,297.495 133.956,296.292 134.675 M90.793 134.416 C 90.793 134.978,97.016 140.768,98.465 141.555 C 99.043 141.868,98.557 141.439,96.650 139.952 C 95.722 139.229,94.024 137.648,92.878 136.440 C 91.731 135.231,90.793 134.321,90.793 134.416 M106.138 135.784 C 106.630 136.042,107.321 136.326,107.673 136.417 C 108.024 136.507,107.693 136.291,106.937 135.938 C 105.350 135.196,104.815 135.093,106.138 135.784 M290.921 136.829 C 290.428 137.041,290.429 137.049,290.970 137.066 C 291.278 137.076,291.601 136.969,291.688 136.829 C 291.875 136.526,291.625 136.526,290.921 136.829 M306.892 137.788 L 306.010 138.747 306.969 137.865 C 307.862 137.045,308.046 136.829,307.851 136.829 C 307.808 136.829,307.376 137.260,306.892 137.788 M21.843 141.049 C 21.843 143.299,21.882 144.186,21.930 143.019 C 21.977 141.851,21.977 140.010,21.929 138.926 C 21.881 137.843,21.842 138.798,21.843 141.049 M117.008 137.340 L 115.473 137.510 116.880 137.527 C 117.653 137.537,118.574 137.453,118.926 137.340 C 119.702 137.092,119.254 137.092,117.008 137.340 M112.473 137.526 C 112.932 137.582,113.623 137.581,114.007 137.523 C 114.391 137.465,114.015 137.418,113.171 137.419 C 112.327 137.421,112.013 137.469,112.473 137.526 M282.928 137.523 C 283.315 137.582,283.948 137.582,284.335 137.523 C 284.722 137.465,284.405 137.417,283.632 137.417 C 282.858 137.417,282.542 137.465,282.928 137.523 M286.893 137.525 C 287.350 137.582,288.098 137.582,288.555 137.525 C 289.012 137.468,288.638 137.422,287.724 137.422 C 286.809 137.422,286.435 137.468,286.893 137.525 M304.627 139.661 C 304.288 139.943,303.828 140.276,303.606 140.400 C 303.383 140.525,303.260 140.686,303.333 140.758 C 303.405 140.831,303.922 140.498,304.482 140.020 C 305.041 139.541,305.441 139.149,305.371 139.149 C 305.301 139.148,304.966 139.378,304.627 139.661 M302.110 141.462 C 301.238 142.020,300.956 142.395,301.726 141.971 C 302.313 141.649,303.232 140.938,303.069 140.933 C 302.999 140.931,302.567 141.169,302.110 141.462 M104.701 144.684 C 104.968 144.951,106.727 145.516,107.302 145.520 C 107.590 145.523,107.935 145.625,108.069 145.748 C 108.203 145.871,108.945 146.040,109.719 146.123 C 110.640 146.221,110.949 146.195,110.614 146.045 C 110.332 145.919,109.678 145.808,109.158 145.798 C 108.639 145.788,108.151 145.678,108.074 145.553 C 107.996 145.427,107.558 145.269,107.100 145.200 C 106.641 145.130,105.876 144.949,105.400 144.796 C 104.924 144.642,104.609 144.592,104.701 144.684 M295.524 144.757 C 295.031 144.969,295.033 144.977,295.573 144.995 C 295.881 145.005,296.205 144.898,296.292 144.757 C 296.479 144.455,296.228 144.455,295.524 144.757 M293.606 145.313 C 293.114 145.449,292.166 145.646,291.500 145.752 C 290.834 145.857,290.210 146.022,290.113 146.118 C 289.877 146.355,292.343 146.022,292.886 145.745 C 293.123 145.623,293.605 145.524,293.958 145.524 C 294.310 145.524,294.670 145.409,294.757 145.269 C 294.940 144.972,294.821 144.977,293.606 145.313 M114.066 146.556 C 116.311 146.809,284.954 146.811,286.573 146.559 C 287.276 146.450,248.376 146.362,200.128 146.365 C 151.880 146.367,113.152 146.454,114.066 146.556 M21.907 185.486 C 21.972 185.591,102.293 185.678,200.399 185.678 C 298.504 185.678,378.772 185.591,378.772 185.486 C 378.772 185.380,298.451 185.294,200.280 185.294 C 102.109 185.294,21.841 185.380,21.907 185.486 M141.368 190.985 C 173.897 191.020,227.126 191.020,259.655 190.985 C 292.184 190.949,265.569 190.920,200.512 190.920 C 135.454 190.920,108.840 190.949,141.368 190.985 M79.923 191.721 C 79.361 192.086,78.676 192.688,78.402 193.059 C 78.043 193.544,78.213 193.458,79.004 192.751 C 79.610 192.211,80.467 191.611,80.909 191.419 C 81.352 191.226,81.541 191.066,81.330 191.063 C 81.119 191.059,80.486 191.356,79.923 191.721 M318.353 195.536 C 318.663 195.753,319.024 196.300,319.154 196.751 C 319.322 197.332,319.398 197.413,319.414 197.029 C 319.440 196.423,318.536 195.141,318.083 195.141 C 317.921 195.141,318.043 195.318,318.353 195.536 M323.253 196.356 C 323.376 197.238,323.393 197.256,323.478 196.580 C 323.528 196.176,323.468 195.745,323.345 195.621 C 323.216 195.493,323.177 195.806,323.253 196.356 M76.620 198.018 C 76.310 199.558,76.238 200.359,76.441 200.000 C 76.561 199.789,76.720 199.127,76.796 198.529 C 76.940 197.387,76.819 197.033,76.620 198.018 M323.789 198.870 C 323.791 199.281,323.903 199.789,324.038 200.000 C 324.204 200.261,324.232 200.057,324.125 199.361 C 323.932 198.096,323.784 197.881,323.789 198.870 M80.594 198.849 C 80.573 199.130,80.496 199.648,80.424 200.000 L 80.292 200.639 80.566 200.012 C 80.717 199.667,80.794 199.149,80.736 198.861 C 80.635 198.351,80.631 198.351,80.594 198.849 M319.711 199.254 C 319.721 199.594,319.833 200.102,319.961 200.384 C 320.122 200.740,320.145 200.585,320.037 199.872 C 319.856 198.685,319.685 198.360,319.711 199.254 M75.990 201.023 C 75.969 201.234,75.888 201.694,75.810 202.046 C 75.687 202.599,75.707 202.624,75.958 202.230 C 76.118 201.980,76.199 201.520,76.139 201.207 C 76.078 200.895,76.011 200.812,75.990 201.023 M79.955 202.078 C 79.742 203.144,79.949 203.351,80.179 202.302 C 80.276 201.860,80.302 201.445,80.237 201.379 C 80.172 201.314,80.045 201.629,79.955 202.078 M320.241 201.918 C 320.241 202.199,320.339 202.660,320.460 202.941 L 320.680 203.453 320.680 202.941 C 320.680 202.660,320.581 202.199,320.460 201.918 L 320.241 201.407 320.241 201.918 M75.362 204.007 C 75.269 204.101,75.202 204.475,75.214 204.838 C 75.235 205.487,75.240 205.485,75.461 204.744 C 75.694 203.966,75.659 203.710,75.362 204.007 M79.426 204.746 C 79.330 205.259,79.302 205.730,79.365 205.793 C 79.427 205.855,79.557 205.486,79.653 204.973 C 79.750 204.460,79.777 203.989,79.715 203.926 C 79.652 203.864,79.522 204.232,79.426 204.746 M325.044 205.051 C 325.166 205.934,325.184 205.952,325.268 205.276 C 325.318 204.872,325.259 204.440,325.135 204.317 C 325.007 204.188,324.968 204.502,325.044 205.051 M320.990 205.648 C 321.000 205.988,321.112 206.496,321.240 206.777 C 321.401 207.134,321.424 206.979,321.316 206.266 C 321.135 205.079,320.964 204.754,320.990 205.648 M74.840 206.532 C 74.752 206.760,74.694 207.254,74.710 207.630 C 74.732 208.141,74.789 208.055,74.939 207.289 C 75.150 206.202,75.104 205.844,74.840 206.532 M325.593 207.694 C 325.603 208.034,325.716 208.542,325.843 208.824 C 326.005 209.180,326.028 209.025,325.919 208.312 C 325.738 207.125,325.567 206.800,325.593 207.694 M78.807 207.801 C 78.784 208.082,78.702 208.600,78.623 208.951 C 78.501 209.503,78.521 209.529,78.771 209.137 C 78.930 208.887,79.013 208.369,78.955 207.986 C 78.886 207.532,78.834 207.467,78.807 207.801 M321.513 208.184 C 321.501 208.536,321.603 208.996,321.739 209.207 C 322.055 209.696,322.055 209.170,321.739 208.184 L 321.534 207.545 321.513 208.184 M74.041 210.486 C 73.945 210.788,73.924 211.094,73.994 211.164 C 74.065 211.234,74.201 211.044,74.297 210.742 C 74.393 210.439,74.414 210.134,74.343 210.064 C 74.273 209.993,74.137 210.183,74.041 210.486 M78.151 210.888 C 78.057 211.263,78.038 211.627,78.108 211.697 C 78.178 211.768,78.313 211.518,78.407 211.144 C 78.501 210.769,78.521 210.405,78.450 210.334 C 78.380 210.264,78.245 210.513,78.151 210.888 M326.252 210.997 C 326.454 212.100,326.600 212.309,326.595 211.488 C 326.592 211.148,326.477 210.697,326.339 210.486 C 326.162 210.216,326.136 210.368,326.252 210.997 M322.038 210.742 C 322.051 211.406,322.454 212.498,322.463 211.893 C 322.467 211.611,322.372 211.151,322.251 210.870 C 322.116 210.556,322.034 210.507,322.038 210.742 M73.561 212.925 C 73.473 213.154,73.415 213.648,73.431 214.023 C 73.453 214.535,73.510 214.449,73.660 213.683 C 73.872 212.596,73.825 212.238,73.561 212.925 M77.646 213.537 C 77.227 215.698,77.190 215.974,77.334 215.837 C 77.535 215.647,78.041 212.994,77.903 212.856 C 77.845 212.798,77.730 213.105,77.646 213.537 M326.853 213.929 C 326.950 214.570,327.096 215.160,327.176 215.241 C 327.391 215.455,327.079 213.208,326.861 212.967 C 326.759 212.855,326.755 213.287,326.853 213.929 M322.780 214.344 C 322.790 214.684,322.902 215.192,323.030 215.473 C 323.191 215.830,323.214 215.675,323.106 214.962 C 322.925 213.774,322.754 213.450,322.780 214.344 M73.040 215.409 C 72.729 216.950,72.657 217.750,72.861 217.391 C 72.980 217.180,73.140 216.519,73.215 215.921 C 73.360 214.779,73.238 214.424,73.040 215.409 M77.020 216.667 C 76.999 217.042,76.916 217.560,76.835 217.818 C 76.696 218.261,76.704 218.262,76.979 217.832 C 77.139 217.583,77.223 217.065,77.165 216.681 L 77.059 215.985 77.020 216.667 M323.278 217.029 C 323.280 217.299,323.398 217.692,323.541 217.903 C 323.731 218.183,323.754 218.080,323.629 217.519 C 323.419 216.579,323.272 216.375,323.278 217.029 M76.375 219.725 C 76.161 220.791,76.368 220.998,76.598 219.949 C 76.696 219.507,76.722 219.092,76.657 219.027 C 76.591 218.961,76.465 219.276,76.375 219.725 M323.829 219.437 C 323.842 220.102,324.244 221.193,324.253 220.588 C 324.257 220.307,324.162 219.847,324.041 219.565 C 323.906 219.252,323.824 219.202,323.829 219.437 M328.103 220.005 C 328.220 220.715,328.256 220.751,328.337 220.239 C 328.389 219.906,328.327 219.529,328.198 219.400 C 328.056 219.258,328.018 219.497,328.103 220.005 M71.771 221.621 C 71.683 221.850,71.624 222.344,71.641 222.719 C 71.663 223.230,71.720 223.145,71.869 222.379 C 72.081 221.291,72.035 220.933,71.771 221.621 M75.867 222.049 C 75.781 222.371,75.721 222.922,75.735 223.274 C 75.749 223.650,75.851 223.447,75.982 222.778 C 76.217 221.580,76.134 221.053,75.867 222.049 M328.566 222.379 C 328.791 223.862,329.170 224.674,328.984 223.274 C 328.901 222.641,328.737 221.950,328.621 221.739 C 328.501 221.519,328.477 221.792,328.566 222.379 M324.556 223.167 C 324.558 223.577,324.678 224.086,324.822 224.297 C 325.009 224.572,325.034 224.390,324.912 223.657 C 324.699 222.389,324.551 222.184,324.556 223.167 M71.138 224.851 C 71.117 225.227,71.034 225.744,70.953 226.002 C 70.813 226.445,70.821 226.446,71.097 226.016 C 71.257 225.767,71.341 225.249,71.282 224.866 L 71.176 224.169 71.138 224.851 M75.227 225.491 C 75.207 225.796,75.126 226.256,75.045 226.514 C 74.905 226.957,74.913 226.958,75.189 226.527 C 75.350 226.277,75.432 225.817,75.371 225.504 C 75.262 224.937,75.261 224.937,75.227 225.491 M329.192 225.320 C 329.192 225.531,329.291 225.934,329.412 226.215 C 329.550 226.537,329.632 226.585,329.632 226.343 C 329.632 226.132,329.533 225.729,329.412 225.448 C 329.273 225.125,329.192 225.078,329.192 225.320 M325.107 225.703 C 325.103 225.985,325.199 226.445,325.320 226.726 C 325.600 227.378,325.600 226.706,325.320 225.831 C 325.155 225.317,325.113 225.292,325.107 225.703 M248.932 227.941 C 248.647 228.258,248.322 228.689,248.210 228.900 C 247.994 229.307,248.053 229.252,249.089 228.069 C 249.428 227.682,249.648 227.366,249.578 227.366 C 249.507 227.366,249.217 227.625,248.932 227.941 M262.180 227.689 C 262.408 227.868,262.839 228.415,263.138 228.905 C 263.437 229.395,263.681 229.694,263.682 229.570 C 263.684 229.122,262.639 227.669,262.207 227.518 C 261.805 227.378,261.802 227.394,262.180 227.689 M70.503 227.792 C 70.409 227.886,70.340 228.202,70.349 228.495 C 70.364 228.985,70.385 228.979,70.610 228.416 C 70.860 227.789,70.808 227.487,70.503 227.792 M74.552 228.645 C 74.454 229.226,74.427 229.756,74.493 229.821 C 74.559 229.887,74.689 229.461,74.783 228.875 C 74.876 228.289,74.903 227.759,74.842 227.698 C 74.781 227.637,74.651 228.063,74.552 228.645 M137.263 228.628 C 137.024 229.032,136.829 229.460,136.830 229.579 C 136.830 229.698,137.067 229.408,137.355 228.935 C 137.643 228.462,137.838 228.034,137.788 227.984 C 137.738 227.934,137.502 228.224,137.263 228.628 M325.750 228.900 C 325.836 229.533,326.000 230.281,326.115 230.563 C 326.240 230.868,326.261 230.610,326.168 229.923 C 326.082 229.290,325.918 228.542,325.803 228.261 C 325.678 227.955,325.657 228.213,325.750 228.900 M329.847 228.831 C 330.045 230.115,330.179 230.218,330.179 229.086 C 330.179 228.578,330.071 228.096,329.938 228.014 C 329.795 227.926,329.758 228.255,329.847 228.831 M154.348 234.526 C 154.348 237.453,154.434 239.795,154.540 239.730 C 154.787 239.577,154.784 229.890,154.536 229.500 C 154.432 229.337,154.348 231.599,154.348 234.526 M247.732 229.987 C 247.528 230.748,247.575 238.580,247.788 239.339 C 247.879 239.664,247.954 237.564,247.954 234.671 C 247.954 231.779,247.939 229.412,247.920 229.412 C 247.901 229.412,247.816 229.671,247.732 229.987 M69.980 230.317 C 69.893 230.545,69.834 231.039,69.850 231.415 C 69.872 231.926,69.930 231.840,70.079 231.074 C 70.291 229.987,70.244 229.629,69.980 230.317 M263.789 234.655 C 263.789 237.187,263.827 238.188,263.874 236.880 C 263.920 235.571,263.920 233.500,263.873 232.276 C 263.826 231.052,263.788 232.123,263.789 234.655 M330.356 231.074 C 330.581 232.558,330.960 233.370,330.775 231.969 C 330.691 231.336,330.527 230.646,330.412 230.435 C 330.291 230.215,330.267 230.488,330.356 231.074 M136.676 234.655 C 136.677 236.905,136.716 237.792,136.763 236.625 C 136.811 235.458,136.811 233.616,136.763 232.533 C 136.715 231.449,136.676 232.404,136.676 234.655 M105.559 231.199 C 106.718 231.323,107.811 231.506,107.989 231.606 C 108.233 231.744,108.241 231.712,108.021 231.473 C 107.851 231.288,106.848 231.120,105.592 231.066 L 103.453 230.975 105.559 231.199 M293.401 231.199 C 292.937 231.309,292.477 231.484,292.378 231.588 C 292.280 231.692,292.484 231.689,292.831 231.582 C 293.179 231.475,294.330 231.304,295.389 231.203 L 297.315 231.018 295.780 231.008 C 294.936 231.003,293.866 231.089,293.401 231.199 M73.951 231.757 C 73.930 232.132,73.847 232.650,73.766 232.907 C 73.627 233.350,73.635 233.351,73.910 232.922 C 74.070 232.672,74.154 232.154,74.096 231.771 L 73.990 231.074 73.951 231.757 M101.790 231.461 C 101.520 231.638,101.672 231.664,102.302 231.549 C 103.405 231.346,103.613 231.201,102.792 231.206 C 102.452 231.208,102.001 231.323,101.790 231.461 M297.464 231.294 C 297.522 231.344,297.916 231.463,298.338 231.557 C 298.898 231.683,299.001 231.659,298.721 231.469 C 298.376 231.236,297.207 231.073,297.464 231.294 M326.347 232.118 C 326.349 232.388,326.467 232.781,326.610 232.992 C 326.800 233.272,326.823 233.169,326.698 232.609 C 326.488 231.668,326.341 231.464,326.347 232.118 M99.361 232.737 C 98.939 233.016,98.708 233.243,98.849 233.241 C 99.106 233.237,100.496 232.240,100.256 232.232 C 100.185 232.230,99.783 232.457,99.361 232.737 M302.062 233.522 C 302.844 234.286,303.684 235.198,303.928 235.550 C 304.172 235.902,304.292 236.017,304.194 235.806 C 303.801 234.956,302.772 233.771,301.735 232.975 C 300.777 232.239,300.818 232.308,302.062 233.522 M288.654 234.004 C 288.002 234.702,287.468 235.354,287.468 235.454 C 287.468 235.553,287.505 235.587,287.549 235.529 C 287.594 235.470,288.185 234.818,288.863 234.079 C 289.541 233.341,290.038 232.737,289.968 232.737 C 289.897 232.737,289.306 233.307,288.654 234.004 M69.344 233.504 C 69.321 233.855,69.243 234.431,69.171 234.783 L 69.039 235.422 69.314 234.792 C 69.465 234.446,69.543 233.871,69.487 233.514 L 69.386 232.864 69.344 233.504 M73.433 234.271 C 73.412 234.482,73.331 234.942,73.253 235.294 C 73.130 235.847,73.150 235.872,73.401 235.479 C 73.560 235.228,73.641 234.768,73.581 234.456 C 73.521 234.143,73.454 234.060,73.433 234.271 M326.898 234.527 C 326.911 235.191,327.313 236.283,327.322 235.678 C 327.326 235.396,327.231 234.936,327.110 234.655 C 326.975 234.341,326.893 234.292,326.898 234.527 M330.964 234.448 C 331.022 235.112,331.422 235.675,331.440 235.117 C 331.450 234.809,331.343 234.486,331.202 234.399 C 331.061 234.312,330.954 234.334,330.964 234.448 M112.919 235.366 C 113.166 235.757,113.433 236.013,113.511 235.934 C 113.590 235.856,113.388 235.536,113.062 235.223 L 112.470 234.655 112.919 235.366 M68.702 236.711 C 68.614 236.939,68.552 237.318,68.564 237.553 C 68.576 237.788,68.688 237.640,68.811 237.225 C 69.053 236.418,68.967 236.018,68.702 236.711 M72.776 237.482 C 72.680 237.995,72.652 238.467,72.715 238.529 C 72.777 238.592,72.907 238.223,73.004 237.710 C 73.100 237.196,73.128 236.725,73.065 236.663 C 73.003 236.600,72.873 236.969,72.776 237.482 M327.537 237.852 C 327.621 238.485,327.785 239.175,327.900 239.386 C 328.158 239.857,327.886 237.934,327.593 237.212 C 327.468 236.906,327.446 237.162,327.537 237.852 M331.773 237.852 C 331.773 238.344,331.826 238.545,331.890 238.299 C 331.954 238.053,331.954 237.650,331.890 237.404 C 331.826 237.158,331.773 237.359,331.773 237.852 M305.024 238.363 C 305.227 239.466,305.372 239.674,305.367 238.853 C 305.365 238.513,305.250 238.063,305.112 237.852 C 304.935 237.582,304.909 237.733,305.024 238.363 M114.503 239.144 C 114.583 239.769,114.690 240.329,114.741 240.388 C 114.950 240.628,114.808 238.718,114.592 238.376 C 114.440 238.137,114.409 238.408,114.503 239.144 M95.296 238.768 C 95.090 239.305,95.130 242.466,95.350 243.022 C 95.446 243.264,95.524 242.314,95.524 240.913 C 95.524 238.158,95.526 238.169,95.296 238.768 M286.024 240.793 C 286.024 242.059,286.067 242.609,286.120 242.015 C 286.174 241.422,286.175 240.386,286.122 239.714 C 286.069 239.041,286.025 239.527,286.024 240.793 M68.069 239.941 C 68.048 240.316,67.964 240.834,67.884 241.092 C 67.744 241.534,67.752 241.535,68.028 241.106 C 68.188 240.856,68.271 240.338,68.213 239.955 L 68.107 239.258 68.069 239.941 M136.829 239.894 C 136.829 240.074,137.331 240.724,137.946 241.338 C 138.560 241.952,139.210 242.455,139.390 242.455 C 139.570 242.455,139.329 242.194,138.855 241.874 C 138.380 241.554,137.730 240.904,137.410 240.429 C 137.090 239.955,136.829 239.714,136.829 239.894 M305.441 240.665 C 305.441 241.298,305.490 241.557,305.551 241.240 C 305.612 240.924,305.612 240.406,305.551 240.090 C 305.490 239.773,305.441 240.032,305.441 240.665 M332.243 240.175 C 332.253 240.515,332.365 241.023,332.493 241.304 C 332.654 241.661,332.677 241.506,332.569 240.793 C 332.388 239.605,332.217 239.281,332.243 240.175 M72.158 240.580 C 72.138 240.885,72.057 241.345,71.976 241.603 C 71.836 242.047,71.844 242.047,72.120 241.617 C 72.281 241.366,72.363 240.906,72.302 240.594 C 72.193 240.026,72.192 240.026,72.158 240.580 M248.322 240.635 C 248.674 241.293,250.343 242.581,250.561 242.363 C 250.651 242.273,250.590 242.199,250.426 242.199 C 250.262 242.199,249.659 241.730,249.086 241.157 C 248.512 240.584,248.168 240.349,248.322 240.635 M328.176 240.793 C 328.172 241.074,328.268 241.535,328.389 241.816 C 328.669 242.468,328.669 241.795,328.389 240.921 C 328.224 240.407,328.183 240.382,328.176 240.793 M262.736 241.018 C 262.624 241.212,262.129 241.614,261.637 241.912 C 261.145 242.210,260.843 242.454,260.967 242.454 C 261.376 242.456,262.862 241.430,263.010 241.043 C 263.193 240.566,263.008 240.549,262.736 241.018 M114.619 241.859 C 114.596 242.305,114.512 242.880,114.431 243.138 C 114.292 243.580,114.300 243.581,114.574 243.153 C 114.734 242.904,114.819 242.328,114.763 241.874 L 114.660 241.049 114.619 241.859 M67.410 243.113 C 67.316 243.488,67.288 243.844,67.348 243.904 C 67.408 243.964,67.535 243.707,67.629 243.332 C 67.723 242.957,67.751 242.601,67.690 242.541 C 67.630 242.481,67.504 242.738,67.410 243.113 M142.775 242.646 C 144.428 242.691,147.132 242.691,148.785 242.646 C 150.438 242.602,149.086 242.565,145.780 242.565 C 142.474 242.565,141.122 242.602,142.775 242.646 M253.261 242.646 C 254.632 242.692,256.877 242.692,258.248 242.646 C 259.620 242.600,258.497 242.562,255.754 242.562 C 253.012 242.562,251.889 242.600,253.261 242.646 M305.145 242.754 C 305.128 242.989,305.049 243.391,304.968 243.649 C 304.828 244.093,304.836 244.094,305.113 243.662 C 305.274 243.411,305.353 243.009,305.290 242.767 C 305.186 242.371,305.171 242.370,305.145 242.754 M71.643 243.095 C 71.622 243.376,71.545 243.894,71.473 244.246 L 71.341 244.885 71.615 244.258 C 71.766 243.912,71.842 243.395,71.785 243.107 C 71.684 242.597,71.680 242.596,71.643 243.095 M328.695 243.350 C 328.695 243.632,328.788 244.150,328.900 244.501 C 329.062 245.008,329.105 245.034,329.105 244.629 C 329.105 244.348,329.013 243.830,328.900 243.478 C 328.738 242.972,328.695 242.945,328.695 243.350 M332.890 243.649 C 333.126 244.629,333.248 244.721,333.248 243.920 C 333.248 243.553,333.128 243.179,332.982 243.088 C 332.808 242.980,332.776 243.173,332.890 243.649 M2.324 245.524 C 2.331 245.735,2.437 246.138,2.558 246.419 L 2.777 246.931 2.791 246.419 C 2.799 246.138,2.694 245.735,2.558 245.524 C 2.337 245.183,2.311 245.183,2.324 245.524 M66.852 245.634 C 66.775 245.834,66.754 246.266,66.807 246.593 C 66.877 247.030,66.936 246.933,67.031 246.228 C 67.165 245.235,67.094 245.001,66.852 245.634 M333.419 246.164 C 333.613 247.428,333.761 247.643,333.756 246.654 C 333.754 246.244,333.642 245.735,333.507 245.524 C 333.341 245.263,333.313 245.467,333.419 246.164 M71.008 246.090 C 70.922 246.412,70.861 246.905,70.873 247.187 C 70.885 247.468,71.001 247.249,71.129 246.701 C 71.379 245.638,71.272 245.103,71.008 246.090 M96.419 245.640 C 96.419 246.025,98.202 248.043,99.048 248.614 C 99.679 249.040,99.617 248.938,98.782 248.179 C 98.182 247.633,97.405 246.790,97.055 246.306 C 96.706 245.821,96.419 245.522,96.419 245.640 M112.292 247.036 C 111.668 247.822,111.356 248.304,111.598 248.106 C 112.167 247.644,113.646 245.780,113.522 245.682 C 113.470 245.641,112.916 246.250,112.292 247.036 M303.580 246.355 C 303.203 246.870,303.141 247.048,303.418 246.824 C 303.837 246.484,304.471 245.524,304.277 245.524 C 304.228 245.524,303.914 245.898,303.580 246.355 M329.331 246.547 C 329.417 247.180,329.581 247.928,329.696 248.210 C 329.820 248.515,329.841 248.258,329.748 247.570 C 329.662 246.937,329.498 246.189,329.384 245.908 C 329.259 245.603,329.238 245.860,329.331 246.547 M287.904 246.923 C 288.156 247.270,288.470 247.558,288.600 247.562 C 288.730 247.567,288.566 247.283,288.235 246.931 C 287.469 246.115,287.313 246.111,287.904 246.923 M289.898 248.693 C 290.460 249.197,291.026 249.610,291.155 249.613 C 291.284 249.615,291.342 249.581,291.283 249.538 C 291.224 249.495,290.659 249.081,290.026 248.618 L 288.875 247.778 289.898 248.693 M301.781 248.220 C 301.596 248.444,301.108 248.801,300.698 249.013 C 300.288 249.225,300.018 249.463,300.097 249.543 C 300.212 249.658,301.089 249.105,302.280 248.166 C 302.339 248.120,302.327 248.022,302.253 247.948 C 302.179 247.874,301.967 247.997,301.781 248.220 M66.275 248.593 C 66.252 248.945,66.174 249.520,66.102 249.872 L 65.970 250.512 66.245 249.882 C 66.396 249.536,66.474 248.960,66.418 248.603 L 66.317 247.954 66.275 248.593 M395.961 250.065 C 394.974 251.385,394.957 251.430,395.791 250.512 C 396.624 249.594,397.325 248.592,397.132 248.594 C 397.092 248.595,396.565 249.257,395.961 250.065 M70.364 249.233 C 70.343 249.514,70.266 250.032,70.194 250.384 L 70.062 251.023 70.336 250.396 C 70.487 250.051,70.563 249.533,70.506 249.245 C 70.405 248.735,70.401 248.734,70.364 249.233 M329.945 249.744 C 329.937 250.026,330.043 250.428,330.179 250.639 C 330.508 251.148,330.508 250.509,330.179 249.744 L 329.959 249.233 329.945 249.744 M102.902 250.444 C 103.064 250.547,104.003 250.632,104.987 250.632 C 105.972 250.632,106.910 250.547,107.073 250.444 C 107.235 250.340,106.297 250.256,104.987 250.256 C 103.678 250.256,102.739 250.340,102.902 250.444 M293.440 250.444 C 293.805 250.677,297.156 250.666,297.754 250.430 C 297.995 250.334,297.057 250.256,295.669 250.256 C 294.281 250.256,293.278 250.340,293.440 250.444 M5.754 251.528 C 6.317 252.049,7.008 252.586,7.289 252.722 L 7.801 252.969 7.289 252.561 C 7.008 252.337,6.544 251.957,6.258 251.716 C 5.123 250.761,4.791 250.637,5.754 251.528 M69.851 251.961 C 69.834 252.196,69.755 252.599,69.674 252.856 C 69.534 253.300,69.542 253.301,69.819 252.869 C 69.980 252.619,70.059 252.216,69.996 251.974 C 69.892 251.578,69.877 251.577,69.851 251.961 M330.612 252.877 L 330.756 254.219 200.097 254.284 L 69.437 254.348 200.192 254.412 L 330.946 254.476 330.921 253.645 C 330.907 253.187,330.799 252.526,330.682 252.174 C 330.542 251.755,330.518 251.997,330.612 252.877 M334.680 252.344 C 334.916 253.324,335.038 253.417,335.038 252.615 C 335.038 252.248,334.919 251.874,334.772 251.784 C 334.598 251.676,334.566 251.869,334.680 252.344 M11.046 254.258 C 11.878 254.493,65.161 254.518,65.306 254.284 C 65.371 254.178,53.056 254.092,37.940 254.092 C 22.823 254.092,10.721 254.167,11.046 254.258 " stroke="none" fill="#5d5d5d" fill-rule="evenodd"></path><path id="path4" d="M113.111 84.838 C 113.500 84.897,114.075 84.895,114.390 84.835 C 114.704 84.774,114.386 84.726,113.683 84.728 C 112.980 84.730,112.722 84.779,113.111 84.838 M178.325 92.008 C 162.957 92.044,150.384 92.160,150.384 92.265 C 150.384 92.514,206.293 92.258,206.543 92.008 C 206.649 91.902,206.629 91.844,206.500 91.879 C 206.371 91.913,193.692 91.971,178.325 92.008 M250.251 115.601 C 250.251 128.613,250.282 133.935,250.320 127.430 C 250.358 120.924,250.358 110.278,250.320 103.772 C 250.282 97.267,250.251 102.590,250.251 115.601 M307.545 94.118 C 308.094 94.680,308.601 95.141,308.672 95.141 C 308.742 95.141,308.350 94.680,307.801 94.118 C 307.251 93.555,306.744 93.095,306.674 93.095 C 306.603 93.095,306.995 93.555,307.545 94.118 M113.235 94.042 C 113.552 94.103,114.070 94.103,114.386 94.042 C 114.703 93.981,114.444 93.932,113.811 93.932 C 113.178 93.932,112.919 93.981,113.235 94.042 M115.793 94.042 C 116.109 94.103,116.627 94.103,116.944 94.042 C 117.260 93.981,117.001 93.932,116.368 93.932 C 115.735 93.932,115.476 93.981,115.793 94.042 M283.568 94.042 C 283.884 94.103,284.402 94.103,284.719 94.042 C 285.035 93.981,284.776 93.932,284.143 93.932 C 283.510 93.932,283.251 93.981,283.568 94.042 M286.125 94.042 C 286.442 94.103,286.960 94.103,287.276 94.042 C 287.593 93.981,287.334 93.932,286.701 93.932 C 286.068 93.932,285.809 93.981,286.125 94.042 M378.617 106.138 C 378.617 108.037,378.657 108.814,378.706 107.864 C 378.755 106.915,378.755 105.361,378.706 104.412 C 378.657 103.462,378.617 104.239,378.617 106.138 M21.839 106.266 C 21.839 108.095,21.880 108.809,21.929 107.854 C 21.978 106.898,21.978 105.402,21.928 104.529 C 21.878 103.656,21.838 104.437,21.839 106.266 M85.820 105.946 C 85.555 106.820,85.491 107.405,85.672 107.292 C 85.783 107.224,85.925 106.821,85.988 106.397 C 86.101 105.622,86.001 105.352,85.820 105.946 M85.010 109.061 C 84.933 109.261,84.913 109.693,84.965 110.020 C 85.035 110.457,85.095 110.360,85.190 109.655 C 85.324 108.662,85.253 108.428,85.010 109.061 M263.765 115.090 C 263.765 116.004,263.811 116.378,263.868 115.921 C 263.925 115.464,263.925 114.715,263.868 114.258 C 263.811 113.801,263.765 114.175,263.765 115.090 M316.433 115.985 C 316.436 116.547,316.488 116.747,316.549 116.429 C 316.610 116.111,316.608 115.651,316.544 115.406 C 316.480 115.162,316.430 115.422,316.433 115.985 M84.433 117.391 C 84.418 118.587,84.501 119.714,84.617 119.897 C 84.733 120.079,84.781 119.273,84.726 118.106 C 84.583 115.129,84.463 114.836,84.433 117.391 M21.838 119.693 C 21.838 121.451,21.879 122.171,21.928 121.292 C 21.978 120.412,21.978 118.974,21.928 118.095 C 21.879 117.215,21.838 117.935,21.838 119.693 M378.615 119.693 C 378.615 121.451,378.656 122.171,378.706 121.292 C 378.756 120.412,378.756 118.974,378.706 118.095 C 378.656 117.215,378.615 117.935,378.615 119.693 M315.982 120.652 C 315.897 121.180,315.775 121.899,315.711 122.251 C 315.628 122.702,315.660 122.777,315.819 122.506 C 316.063 122.089,316.428 119.693,316.247 119.693 C 316.186 119.693,316.066 120.125,315.982 120.652 M21.841 133.504 C 21.841 135.543,21.880 136.378,21.929 135.358 C 21.978 134.338,21.978 132.669,21.929 131.650 C 21.880 130.630,21.841 131.464,21.841 133.504 M378.618 133.504 C 378.618 135.543,378.658 136.378,378.707 135.358 C 378.755 134.338,378.755 132.669,378.707 131.650 C 378.658 130.630,378.618 131.464,378.618 133.504 M270.205 131.202 C 270.754 131.765,271.261 132.225,271.331 132.225 C 271.402 132.225,271.010 131.765,270.460 131.202 C 269.911 130.639,269.404 130.179,269.334 130.179 C 269.263 130.179,269.655 130.639,270.205 131.202 M309.595 134.966 L 309.145 135.678 309.738 135.109 C 310.063 134.797,310.265 134.477,310.187 134.398 C 310.108 134.319,309.842 134.575,309.595 134.966 M93.350 137.468 C 94.114 138.242,94.797 138.875,94.867 138.875 C 94.938 138.875,94.370 138.242,93.606 137.468 C 92.842 136.694,92.159 136.061,92.089 136.061 C 92.019 136.061,92.586 136.694,93.350 137.468 M150.384 139.156 C 150.384 139.355,249.865 139.734,250.063 139.536 C 250.146 139.454,241.994 139.370,231.948 139.350 C 221.902 139.330,199.440 139.244,182.033 139.158 C 164.626 139.073,150.383 139.072,150.384 139.156 M21.861 165.090 C 21.861 176.202,21.892 180.711,21.931 175.109 C 21.969 169.507,21.969 160.415,21.931 154.904 C 21.892 149.394,21.861 153.977,21.861 165.090 M378.579 165.025 L 378.517 185.166 200.320 185.230 L 22.123 185.294 200.328 185.358 C 342.703 185.409,378.557 185.358,378.655 185.102 C 378.722 184.926,378.746 175.806,378.709 164.834 L 378.641 144.885 378.579 165.025 M109.719 146.284 C 109.930 146.402,111.311 146.560,112.788 146.636 C 115.339 146.766,115.371 146.761,113.427 146.548 C 112.302 146.424,110.921 146.266,110.358 146.196 C 109.735 146.119,109.485 146.153,109.719 146.284 M288.619 146.323 C 285.360 146.631,285.091 146.789,288.107 146.623 C 289.514 146.546,290.838 146.385,291.049 146.267 C 291.260 146.148,291.317 146.063,291.176 146.078 C 291.036 146.093,289.885 146.203,288.619 146.323 M141.368 195.077 C 173.756 195.112,226.755 195.112,259.143 195.077 C 291.531 195.041,265.032 195.012,200.256 195.012 C 135.480 195.012,108.980 195.041,141.368 195.077 M143.300 226.789 C 144.679 226.835,146.865 226.835,148.159 226.789 C 149.453 226.743,148.325 226.705,145.652 226.705 C 142.980 226.705,141.921 226.743,143.300 226.789 M254.040 226.789 C 255.136 226.837,256.863 226.837,257.876 226.788 C 258.890 226.740,257.992 226.700,255.882 226.701 C 253.772 226.701,252.943 226.741,254.040 226.789 M247.931 234.527 C 247.931 236.988,247.970 237.996,248.017 236.765 C 248.063 235.534,248.063 233.520,248.017 232.289 C 247.970 231.058,247.931 232.065,247.931 234.527 M98.066 234.079 L 97.315 234.910 98.146 234.159 C 98.921 233.459,99.095 233.248,98.897 233.248 C 98.853 233.248,98.479 233.622,98.066 234.079 M301.790 233.328 C 301.790 233.372,302.164 233.746,302.621 234.159 L 303.453 234.910 302.702 234.079 C 302.001 233.304,301.790 233.131,301.790 233.328 M348.677 254.412 C 356.108 254.449,368.192 254.449,375.531 254.412 C 382.870 254.374,376.790 254.343,362.020 254.343 C 347.251 254.343,341.246 254.374,348.677 254.412 " stroke="none" fill="#929292" fill-rule="evenodd"></path></g></svg>