<svg id="Capa_1" enable-background="new 0 0 512 512" height="512" viewBox="0 0 512 512" width="512" xmlns="http://www.w3.org/2000/svg"><g><path d="m496 270c8.284 0 15-6.716 15-15v-60c0-8.284-6.716-15-15-15s-15 6.716-15 15v15h-30v-15c0-8.284-6.716-15-15-15h-55v-70h45c8.284 0 15-6.716 15-15v-50c0-24.813-20.187-45-45-45h-220c-24.813 0-45 20.187-45 45v135h-55c-8.284 0-15 6.716-15 15v15h-30v-15c0-8.284-6.716-15-15-15s-15 6.716-15 15v60c0 8.284 6.716 15 15 15s15-6.716 15-15v-15h30v12.567l-59.23 177.69c-.51 1.529-.77 3.131-.77 4.743v32c0 24.813 20.187 45 45 45h420c24.813 0 45-20.187 45-45v-32c0-1.612-.26-3.214-.77-4.743l-59.23-177.692v-12.565h30v15c0 8.284 6.716 15 15 15zm-115-225c0-8.271 6.729-15 15-15s15 6.729 15 15v35h-30zm-220 0c0-8.271 6.729-15 15-15h177.58c-1.665 4.695-2.58 9.742-2.58 15v135h-190zm-70 165h330v30h-330zm90 272h-135c-8.271 0-15-6.729-15-15v-17h150zm120 0h-90v-32h90zm180-15c0 8.271-6.729 15-15 15h-135v-32h150zm-5.811-47h-438.378l50-150h338.377z"/><path d="m306 60h-100c-8.284 0-15 6.716-15 15s6.716 15 15 15h100c8.284 0 15-6.716 15-15s-6.716-15-15-15z"/><path d="m306 120h-100c-8.284 0-15 6.716-15 15s6.716 15 15 15h100c8.284 0 15-6.716 15-15s-6.716-15-15-15z"/><path d="m146 300h-20c-8.284 0-15 6.716-15 15s6.716 15 15 15h20c8.284 0 15-6.716 15-15s-6.716-15-15-15z"/><path d="m401 315c0-8.284-6.716-15-15-15h-20c-8.284 0-15 6.716-15 15s6.716 15 15 15h20c8.284 0 15-6.716 15-15z"/><path d="m206 330h20c8.284 0 15-6.716 15-15s-6.716-15-15-15h-20c-8.284 0-15 6.716-15 15s6.716 15 15 15z"/><path d="m286 330h20c8.284 0 15-6.716 15-15s-6.716-15-15-15h-20c-8.284 0-15 6.716-15 15s6.716 15 15 15z"/><path d="m126 360h-20c-8.284 0-15 6.716-15 15s6.716 15 15 15h20c8.284 0 15-6.716 15-15s-6.716-15-15-15z"/><path d="m406 360h-20c-8.284 0-15 6.716-15 15s6.716 15 15 15h20c8.284 0 15-6.716 15-15s-6.716-15-15-15z"/><path d="m326 360h-140c-8.284 0-15 6.716-15 15s6.716 15 15 15h140c8.284 0 15-6.716 15-15s-6.716-15-15-15z"/></g></svg>